{"glyphs":{"0":{"ha":834,"o":"m 195 0 l 195 0 q 157 0 126 20.5 q 95 41 76 74 q 57 107 57 144 l 57 144 l 57 579 q 57 618 76 649.5 q 95 681 126 700.5 q 157 720 195 720 l 195 720 l 632 720 q 670 720 701 700.5 q 732 681 751 649.5 q 770 618 770 579 l 770 579 l 770 144 q 770 107 751 74 q 732 41 701 20.5 q 670 0 632 0 l 632 0 l 195 0 z m 639 464 l 248 138 l 248 138 l 627 138 q 632 138 635.5 141.5 q 639 145 639 150 l 639 150 l 639 464 z m 188 574 l 188 260 l 188 260 l 579 586 l 200 586 q 195 586 191.5 582.5 q 188 579 188 574 l 188 574 z"},"1":{"ha":391,"o":"m 363 0 l 231 0 l 231 0 l 231 531 l 174 461 l 1 461 l 218 720 l 363 720 l 363 0 z"},"2":{"ha":830,"o":"m 770 0 l 57 0 l 57 0 l 57 276 q 57 315 76 346 q 95 377 126 395.5 q 157 414 195 414 l 195 414 l 627 414 q 632 414 635.5 417.5 q 639 421 639 426 l 639 426 l 639 577 q 639 582 635.5 585.5 q 632 589 627 589 l 627 589 l 200 589 q 195 589 191.5 585.5 q 188 582 188 577 l 188 577 l 188 528 l 57 528 l 57 582 q 57 621 76 652 q 95 683 126 701.5 q 157 720 195 720 l 195 720 l 632 720 q 670 720 701.5 701.5 q 733 683 751.5 652 q 770 621 770 582 l 770 582 l 770 420 q 770 383 751.5 351.5 q 733 320 701.5 301 q 670 282 632 282 l 632 282 l 200 282 q 195 282 191.5 278.5 q 188 275 188 270 l 188 270 l 188 143 q 188 138 191.5 134.5 q 195 131 200 131 l 200 131 l 770 131 l 770 0 z"},"3":{"ha":826,"o":"m 192 0 l 192 0 q 153 0 122 19 q 91 38 72 69 q 53 100 53 138 l 53 138 l 53 181 l 184 181 l 184 143 q 184 138 187.5 134.5 q 191 131 196 131 l 196 131 l 623 131 q 628 131 632 134.5 q 636 138 636 143 l 636 143 l 636 287 q 636 292 632 295.5 q 628 299 623 299 l 623 299 l 177 299 l 177 430 l 595 430 q 600 430 603.5 433.5 q 607 437 607 442 l 607 442 l 607 577 q 607 582 603.5 585.5 q 600 589 595 589 l 595 589 l 196 589 q 191 589 187.5 585.5 q 184 582 184 577 l 184 577 l 184 530 l 53 530 l 53 582 q 53 621 72 652 q 91 683 122 701.5 q 153 720 192 720 l 192 720 l 600 720 q 639 720 670 701.5 q 701 683 719.5 652 q 738 621 738 582 l 738 582 l 738 436 q 738 424 736 411.5 q 734 399 730 388 l 730 388 q 748 369 757.5 343.5 q 767 318 767 292 l 767 292 l 767 138 q 767 100 748 69 q 729 38 698 19 q 667 0 629 0 l 629 0 l 192 0 z"},"4":{"ha":730,"o":"m 590 0 l 459 0 l 459 0 l 459 181 l 6 181 l 6 304 l 467 720 l 590 720 l 590 313 l 691 313 l 691 181 l 590 181 l 590 0 z m 459 521 l 210 313 l 210 313 l 459 313 l 459 521 z"},"5":{"ha":830,"o":"m 195 0 l 195 0 q 157 0 126 19 q 95 38 76 69 q 57 100 57 138 l 57 138 l 57 185 l 188 185 l 188 143 q 188 138 191.5 134.5 q 195 131 200 131 l 200 131 l 627 131 q 632 131 635.5 134.5 q 639 138 639 143 l 639 143 l 639 289 q 639 294 635.5 297.5 q 632 301 627 301 l 627 301 l 57 301 l 57 720 l 770 720 l 770 589 l 200 589 q 195 589 191.5 585.5 q 188 582 188 577 l 188 577 l 188 445 q 188 440 191.5 436.5 q 195 433 200 433 l 200 433 l 632 433 q 670 433 701.5 414.5 q 733 396 751.5 364.5 q 770 333 770 295 l 770 295 l 770 138 q 770 100 751 69 q 732 38 701 19 q 670 0 632 0 l 632 0 l 195 0 z"},"6":{"ha":820,"o":"m 195 0 l 195 0 q 157 0 126 19 q 95 38 76 69 q 57 100 57 138 l 57 138 l 57 582 q 57 621 76 652 q 95 683 126 701.5 q 157 720 195 720 l 195 720 l 656 720 l 656 589 l 200 589 q 195 589 191.5 585.5 q 188 582 188 577 l 188 577 l 188 446 q 188 441 191.5 437.5 q 195 434 200 434 l 200 434 l 632 434 q 670 434 701.5 415.5 q 733 397 751.5 365.5 q 770 334 770 296 l 770 296 l 770 138 q 770 100 751 69 q 732 38 701 19 q 670 0 632 0 l 632 0 l 195 0 z m 200 131 l 200 131 l 627 131 q 632 131 635.5 134.5 q 639 138 639 143 l 639 143 l 639 290 q 639 295 635.5 298.5 q 632 302 627 302 l 627 302 l 188 302 l 188 143 q 188 138 191.5 134.5 q 195 131 200 131 z"},"7":{"ha":660,"o":"m 602 0 l 471 0 l 471 0 l 471 578 q 471 583 467.5 586.5 q 464 590 459 590 l 459 590 l 3 590 l 3 721 l 464 721 q 502 721 533.5 702.5 q 565 684 583.5 653 q 602 622 602 583 l 602 583 l 602 0 z"},"8":{"ha":834,"o":"m 195 0 l 195 0 q 157 0 126 19 q 95 38 76 69 q 57 100 57 138 l 57 138 l 57 295 q 57 313 63 331.5 q 69 350 78 367 l 78 367 q 69 384 63 402.5 q 57 421 57 440 l 57 440 l 57 582 q 57 621 76 652 q 95 683 126 701.5 q 157 720 195 720 l 195 720 l 632 720 q 665 720 694 705 q 723 690 743.5 664 q 764 638 770 607 l 770 607 l 770 440 q 770 403 749 367 l 749 367 q 770 334 770 295 l 770 295 l 770 138 q 770 100 751 69 q 732 38 701 19 q 670 0 632 0 l 632 0 l 195 0 z m 200 131 l 200 131 l 200 131 l 627 131 q 632 131 635.5 134.5 q 639 138 639 143 l 639 143 l 639 289 q 639 294 635.5 297.5 q 632 301 627 301 l 627 301 l 200 301 q 195 301 191.5 297.5 q 188 294 188 289 l 188 289 l 188 143 q 188 138 191.5 134.5 q 195 131 200 131 z m 200 422 l 200 422 l 200 422 l 627 422 q 632 422 635.5 426 q 639 430 639 434 l 639 434 l 639 576 q 639 581 635.5 584.5 q 632 588 627 588 l 627 588 l 200 588 q 195 588 191.5 584.5 q 188 581 188 576 l 188 576 l 188 434 q 188 430 191.5 426 q 195 422 200 422 z"},"9":{"ha":828,"o":"m 192 0 l 192 0 q 159 0 130 17.5 q 101 35 80.5 64.5 q 60 94 53 131 l 53 131 l 624 131 q 629 131 632.5 134.5 q 636 138 636 143 l 636 143 l 636 276 q 636 281 632.5 284.5 q 629 288 624 288 l 624 288 l 192 288 q 153 288 122 307 q 91 326 72 357.5 q 53 389 53 427 l 53 427 l 53 582 q 53 621 72 652 q 91 683 122 701.5 q 153 720 192 720 l 192 720 l 629 720 q 667 720 698 701.5 q 729 683 748 652 q 767 621 767 582 l 767 582 l 767 138 q 767 100 748 69 q 729 38 698 19 q 667 0 629 0 l 629 0 l 192 0 z m 197 420 l 197 420 l 197 420 l 636 420 l 636 577 q 636 582 632.5 585.5 q 629 589 624 589 l 624 589 l 197 589 q 192 589 188.5 585.5 q 185 582 185 577 l 185 577 l 185 432 q 185 427 188.5 423.5 q 192 420 197 420 z"},"A":{"ha":836,"o":"m 58 0 l 58 0 l 58 581 q 58 619 77 650.5 q 96 682 127.5 701 q 159 720 197 720 l 197 720 l 638 720 q 676 720 708 701 q 740 682 759 650.5 q 778 619 778 581 l 778 581 l 778 0 l 645 0 l 645 242 l 190 242 l 190 0 l 58 0 z m 190 374 l 190 374 l 645 374 l 645 575 q 645 580 641 583.5 q 637 587 632 587 l 632 587 l 202 587 q 197 587 193.5 583.5 q 190 580 190 575 l 190 575 l 190 374 z"},"Á":{"ha":836,"o":"m 58 0 l 58 0 l 58 581 q 58 619 77 650.5 q 96 682 127.5 701 q 159 720 197 720 l 197 720 l 638 720 q 676 720 708 701 q 740 682 759 650.5 q 778 619 778 581 l 778 581 l 778 0 l 645 0 l 645 242 l 190 242 l 190 0 l 58 0 z m 190 374 l 190 374 l 645 374 l 645 575 q 645 580 641 583.5 q 637 587 632 587 l 632 587 l 202 587 q 197 587 193.5 583.5 q 190 580 190 575 l 190 575 l 190 374 z m 479 780 l 345 780 l 345 780 l 392 963 l 524 963 l 479 780 z"},"Â":{"ha":836,"o":"m 58 0 l 58 0 l 58 581 q 58 619 77 650.5 q 96 682 127.5 701 q 159 720 197 720 l 197 720 l 638 720 q 676 720 708 701 q 740 682 759 650.5 q 778 619 778 581 l 778 581 l 778 0 l 645 0 l 645 242 l 190 242 l 190 0 l 58 0 z m 190 374 l 190 374 l 645 374 l 645 575 q 645 580 641 583.5 q 637 587 632 587 l 632 587 l 202 587 q 197 587 193.5 583.5 q 190 580 190 575 l 190 575 l 190 374 z m 382 789 l 271 789 l 271 789 l 372 959 l 466 959 l 567 789 l 455 789 l 418 852 l 382 789 z"},"Ä":{"ha":836,"o":"m 58 0 l 58 0 l 58 581 q 58 619 77 650.5 q 96 682 127.5 701 q 159 720 197 720 l 197 720 l 638 720 q 676 720 708 701 q 740 682 759 650.5 q 778 619 778 581 l 778 581 l 778 0 l 645 0 l 645 242 l 190 242 l 190 0 l 58 0 z m 190 374 l 190 374 l 645 374 l 645 575 q 645 580 641 583.5 q 637 587 632 587 l 632 587 l 202 587 q 197 587 193.5 583.5 q 190 580 190 575 l 190 575 l 190 374 z m 586 780 l 454 780 l 454 780 l 454 912 l 586 912 l 586 780 z m 382 780 l 251 780 l 251 780 l 251 912 l 382 912 l 382 780 z"},"À":{"ha":836,"o":"m 58 0 l 58 0 l 58 581 q 58 619 77 650.5 q 96 682 127.5 701 q 159 720 197 720 l 197 720 l 638 720 q 676 720 708 701 q 740 682 759 650.5 q 778 619 778 581 l 778 581 l 778 0 l 645 0 l 645 242 l 190 242 l 190 0 l 58 0 z m 190 374 l 190 374 l 645 374 l 645 575 q 645 580 641 583.5 q 637 587 632 587 l 632 587 l 202 587 q 197 587 193.5 583.5 q 190 580 190 575 l 190 575 l 190 374 z m 493 780 l 359 780 l 359 780 l 313 963 l 447 963 l 493 780 z"},"Å":{"ha":836,"o":"m 58 0 l 58 0 l 58 581 q 58 619 77 650.5 q 96 682 127.5 701 q 159 720 197 720 l 197 720 l 638 720 q 676 720 708 701 q 740 682 759 650.5 q 778 619 778 581 l 778 581 l 778 0 l 645 0 l 645 242 l 190 242 l 190 0 l 58 0 z m 190 374 l 190 374 l 645 374 l 645 575 q 645 580 641 583.5 q 637 587 632 587 l 632 587 l 202 587 q 197 587 193.5 583.5 q 190 580 190 575 l 190 575 l 190 374 z m 445 787 l 392 787 q 364 787 343 807 q 322 827 322 855 l 322 855 l 322 906 q 322 934 343 954.5 q 364 975 392 975 l 392 975 l 445 975 q 473 975 493.5 954.5 q 514 934 514 906 l 514 906 l 514 855 q 514 827 493.5 807 q 473 787 445 787 l 445 787 z m 391 847 l 391 847 l 445 847 q 447 847 447.5 847.5 q 448 848 448 850 l 448 850 l 448 905 q 448 907 447.5 908 q 447 909 445 909 l 445 909 l 391 909 q 389 909 388.5 908 q 388 907 388 905 l 388 905 l 388 850 q 388 848 388.5 847.5 q 389 847 391 847 z"},"Ã":{"ha":836,"o":"m 58 0 l 58 0 l 58 581 q 58 619 77 650.5 q 96 682 127.5 701 q 159 720 197 720 l 197 720 l 638 720 q 676 720 708 701 q 740 682 759 650.5 q 778 619 778 581 l 778 581 l 778 0 l 645 0 l 645 242 l 190 242 l 190 0 l 58 0 z m 190 374 l 190 374 l 645 374 l 645 575 q 645 580 641 583.5 q 637 587 632 587 l 632 587 l 202 587 q 197 587 193.5 583.5 q 190 580 190 575 l 190 575 l 190 374 z m 511 798 l 511 798 q 456 798 397 841 l 397 841 q 340 883 300 883 l 300 883 l 236 883 l 236 984 l 315 984 q 366 984 420 940 l 420 940 q 474 896 520 896 l 520 896 l 600 896 l 600 798 l 511 798 z"},"Æ":{"ha":1375,"o":"m 187 0 l 54 0 l 54 0 l 54 581 q 54 619 73 650.5 q 92 682 123.5 701 q 155 720 193 720 l 193 720 l 1304 720 l 1304 587 l 774 587 l 774 427 l 1200 427 l 1200 293 l 774 293 l 774 133 l 1304 133 l 1304 0 l 642 0 l 642 242 l 187 242 l 187 0 z m 187 575 l 187 374 l 187 374 l 642 374 l 642 575 q 642 580 638.5 583.5 q 635 587 630 587 l 630 587 l 200 587 q 195 587 191 583.5 q 187 580 187 575 l 187 575 z"},"B":{"ha":832,"o":"m 59 0 l 59 0 l 59 720 l 611 720 q 649 720 680.5 701 q 712 682 731 650.5 q 750 619 750 581 l 750 581 l 750 440 q 750 427 748 415 q 746 403 741 392 l 741 392 q 758 369 768.5 344 q 779 319 779 294 l 779 294 l 779 139 q 779 101 760 69.5 q 741 38 709 19 q 677 0 639 0 l 639 0 l 59 0 z m 203 133 l 203 133 l 633 133 q 638 133 642 136.5 q 646 140 646 145 l 646 145 l 646 288 q 646 293 642 296.5 q 638 300 633 300 l 633 300 l 203 300 q 198 300 194.5 296.5 q 191 293 191 288 l 191 288 l 191 145 q 191 140 194.5 136.5 q 198 133 203 133 z m 203 433 l 203 433 l 605 433 q 610 433 613 436.5 q 616 440 616 445 l 616 445 l 616 575 q 616 580 613 583.5 q 610 587 605 587 l 605 587 l 203 587 q 198 587 194.5 583.5 q 191 580 191 575 l 191 575 l 191 445 q 191 440 194.5 436.5 q 198 433 203 433 z"},"C":{"ha":822,"o":"m 774 0 l 195 0 q 157 0 125.5 19 q 94 38 75 69.5 q 56 101 56 139 l 56 139 l 56 581 q 56 619 75 650.5 q 94 682 125.5 701 q 157 720 195 720 l 195 720 l 774 720 l 774 587 l 223 587 q 207 587 197.5 578 q 188 569 188 552 l 188 552 l 188 168 q 188 152 197.5 142.5 q 207 133 223 133 l 223 133 l 774 133 l 774 0 z"},"Ç":{"ha":822,"o":"m 774 0 l 195 0 q 157 0 125.5 19 q 94 38 75 69.5 q 56 101 56 139 l 56 139 l 56 581 q 56 619 75 650.5 q 94 682 125.5 701 q 157 720 195 720 l 195 720 l 774 720 l 774 587 l 223 587 q 207 587 197.5 578 q 188 569 188 552 l 188 552 l 188 168 q 188 152 197.5 142.5 q 207 133 223 133 l 223 133 l 774 133 l 774 0 z m 473 -151 l 339 -151 l 387 15 l 520 15 l 473 -151 z"},"D":{"ha":834,"o":"m 638 0 l 58 0 l 58 720 l 638 720 q 676 720 708 701 q 740 682 759 650.5 q 778 619 778 581 l 778 581 l 778 139 q 778 101 759 69.5 q 740 38 708 19 q 676 0 638 0 l 638 0 z m 201 133 l 201 133 l 632 133 q 637 133 641 136.5 q 645 140 645 145 l 645 145 l 645 575 q 645 580 641 583.5 q 637 587 632 587 l 632 587 l 201 587 q 196 587 192.5 583.5 q 189 580 189 575 l 189 575 l 189 145 q 189 140 192.5 136.5 q 196 133 201 133 z"},"E":{"ha":766,"o":"m 721 0 l 58 0 l 58 720 l 721 720 l 721 587 l 191 587 l 191 427 l 617 427 l 617 293 l 191 293 l 191 133 l 721 133 l 721 0 z"},"É":{"ha":766,"o":"m 721 0 l 58 0 l 58 720 l 721 720 l 721 587 l 191 587 l 191 427 l 617 427 l 617 293 l 191 293 l 191 133 l 721 133 l 721 0 z m 459 780 l 325 780 l 325 780 l 372 963 l 504 963 l 459 780 z"},"Ê":{"ha":766,"o":"m 721 0 l 58 0 l 58 720 l 721 720 l 721 587 l 191 587 l 191 427 l 617 427 l 617 293 l 191 293 l 191 133 l 721 133 l 721 0 z m 362 789 l 251 789 l 251 789 l 352 959 l 446 959 l 547 789 l 435 789 l 398 852 l 362 789 z"},"Ë":{"ha":766,"o":"m 721 0 l 58 0 l 58 720 l 721 720 l 721 587 l 191 587 l 191 427 l 617 427 l 617 293 l 191 293 l 191 133 l 721 133 l 721 0 z m 566 780 l 434 780 l 434 780 l 434 912 l 566 912 l 566 780 z m 362 780 l 231 780 l 231 780 l 231 912 l 362 912 l 362 780 z"},"È":{"ha":766,"o":"m 721 0 l 58 0 l 58 720 l 721 720 l 721 587 l 191 587 l 191 427 l 617 427 l 617 293 l 191 293 l 191 133 l 721 133 l 721 0 z m 473 780 l 339 780 l 339 780 l 293 963 l 427 963 l 473 780 z"},"F":{"ha":723,"o":"m 191 0 l 58 0 l 58 720 l 721 720 l 721 587 l 191 587 l 191 427 l 617 427 l 617 293 l 191 293 l 191 0 z"},"G":{"ha":830,"o":"m 636 0 l 195 0 q 157 0 125.5 19 q 94 38 75 69.5 q 56 101 56 139 l 56 139 l 56 581 q 56 619 75 650.5 q 94 682 125.5 701 q 157 720 195 720 l 195 720 l 636 720 q 674 720 706 701 q 738 682 757 650.5 q 776 619 776 581 l 776 581 l 776 525 l 643 525 l 643 575 q 643 580 639 583.5 q 635 587 630 587 l 630 587 l 200 587 q 195 587 191.5 583.5 q 188 580 188 575 l 188 575 l 188 145 q 188 140 191.5 136.5 q 195 133 200 133 l 200 133 l 630 133 q 635 133 639 136.5 q 643 140 643 145 l 643 145 l 643 275 l 480 275 l 480 408 l 776 408 l 776 139 q 776 101 757 69.5 q 738 38 706 19 q 674 0 636 0 l 636 0 z"},"H":{"ha":851,"o":"m 189 0 l 57 0 l 57 720 l 189 720 l 189 427 l 661 427 l 661 720 l 793 720 l 793 0 l 661 0 l 661 293 l 189 293 l 189 0 z"},"I":{"ha":214,"o":"m 173 0 l 42 0 l 42 720 l 173 720 l 173 0 z"},"Í":{"ha":214,"o":"m 173 0 l 42 0 l 42 720 l 173 720 l 173 0 z m 170 780 l 36 780 l 36 780 l 83 963 l 215 963 l 170 780 z"},"Î":{"ha":214,"o":"m 173 0 l 42 0 l 42 720 l 173 720 l 173 0 z m 73 789 l -38 789 l -38 789 l 63 959 l 157 959 l 258 789 l 146 789 l 109 852 l 73 789 z"},"Ï":{"ha":214,"o":"m 173 0 l 42 0 l 42 720 l 173 720 l 173 0 z m 277 780 l 145 780 l 145 780 l 145 912 l 277 912 l 277 780 z m 73 780 l -58 780 l -58 780 l -58 912 l 73 912 l 73 780 z"},"Ì":{"ha":214,"o":"m 173 0 l 42 0 l 42 720 l 173 720 l 173 0 z m 184 780 l 50 780 l 50 780 l 4 963 l 138 963 l 184 780 z"},"J":{"ha":780,"o":"m 585 0 l 143 0 q 105 0 73.5 19 q 42 38 23 69.5 q 4 101 4 139 l 4 139 l 4 221 l 136 221 l 136 145 q 136 140 139.5 136.5 q 143 133 148 133 l 148 133 l 578 133 q 583 133 587 136.5 q 591 140 591 145 l 591 145 l 591 720 l 724 720 l 724 139 q 724 101 705 69.5 q 686 38 654.5 19 q 623 0 585 0 l 585 0 z"},"K":{"ha":797,"o":"m 190 0 l 57 0 l 57 720 l 190 720 l 190 427 l 359 427 l 605 720 l 749 720 l 749 682 l 479 360 l 750 38 l 750 0 l 605 0 l 359 293 l 190 293 l 190 0 z"},"L":{"ha":779,"o":"m 777 0 l 57 0 l 57 721 l 189 721 l 189 133 l 777 133 l 777 0 z"},"M":{"ha":928,"o":"m 188 0 l 56 0 l 56 720 l 201 720 l 462 409 l 722 720 l 868 720 l 868 0 l 735 0 l 735 528 l 462 203 l 188 527 l 188 0 z"},"N":{"ha":832,"o":"m 188 0 l 56 0 l 56 720 l 201 720 l 643 194 l 643 720 l 776 720 l 776 0 l 631 0 l 188 527 l 188 0 z"},"Ñ":{"ha":832,"o":"m 188 0 l 56 0 l 56 720 l 201 720 l 643 194 l 643 720 l 776 720 l 776 0 l 631 0 l 188 527 l 188 0 z m 496 798 l 496 798 q 441 798 382 841 l 382 841 q 325 883 285 883 l 285 883 l 221 883 l 221 984 l 300 984 q 351 984 405 940 l 405 940 q 459 896 505 896 l 505 896 l 585 896 l 585 798 l 496 798 z"},"O":{"ha":828,"o":"m 635 0 l 193 0 q 155 0 123.5 19 q 92 38 73 69.5 q 54 101 54 139 l 54 139 l 54 581 q 54 619 73 650.5 q 92 682 123.5 701 q 155 720 193 720 l 193 720 l 635 720 q 673 720 704.5 701 q 736 682 755 650.5 q 774 619 774 581 l 774 581 l 774 139 q 774 101 755 69.5 q 736 38 704.5 19 q 673 0 635 0 l 635 0 z m 198 133 l 198 133 l 628 133 q 633 133 637 136.5 q 641 140 641 145 l 641 145 l 641 575 q 641 580 637 583.5 q 633 587 628 587 l 628 587 l 198 587 q 193 587 189.5 583.5 q 186 580 186 575 l 186 575 l 186 145 q 186 140 189.5 136.5 q 193 133 198 133 z"},"Ó":{"ha":828,"o":"m 635 0 l 193 0 q 155 0 123.5 19 q 92 38 73 69.5 q 54 101 54 139 l 54 139 l 54 581 q 54 619 73 650.5 q 92 682 123.5 701 q 155 720 193 720 l 193 720 l 635 720 q 673 720 704.5 701 q 736 682 755 650.5 q 774 619 774 581 l 774 581 l 774 139 q 774 101 755 69.5 q 736 38 704.5 19 q 673 0 635 0 l 635 0 z m 198 133 l 198 133 l 628 133 q 633 133 637 136.5 q 641 140 641 145 l 641 145 l 641 575 q 641 580 637 583.5 q 633 587 628 587 l 628 587 l 198 587 q 193 587 189.5 583.5 q 186 580 186 575 l 186 575 l 186 145 q 186 140 189.5 136.5 q 193 133 198 133 z m 475 780 l 341 780 l 341 780 l 388 963 l 520 963 l 475 780 z"},"Ô":{"ha":828,"o":"m 635 0 l 193 0 q 155 0 123.5 19 q 92 38 73 69.5 q 54 101 54 139 l 54 139 l 54 581 q 54 619 73 650.5 q 92 682 123.5 701 q 155 720 193 720 l 193 720 l 635 720 q 673 720 704.5 701 q 736 682 755 650.5 q 774 619 774 581 l 774 581 l 774 139 q 774 101 755 69.5 q 736 38 704.5 19 q 673 0 635 0 l 635 0 z m 198 133 l 198 133 l 628 133 q 633 133 637 136.5 q 641 140 641 145 l 641 145 l 641 575 q 641 580 637 583.5 q 633 587 628 587 l 628 587 l 198 587 q 193 587 189.5 583.5 q 186 580 186 575 l 186 575 l 186 145 q 186 140 189.5 136.5 q 193 133 198 133 z m 378 789 l 267 789 l 267 789 l 368 959 l 462 959 l 563 789 l 451 789 l 414 852 l 378 789 z"},"Ö":{"ha":828,"o":"m 635 0 l 193 0 q 155 0 123.5 19 q 92 38 73 69.5 q 54 101 54 139 l 54 139 l 54 581 q 54 619 73 650.5 q 92 682 123.5 701 q 155 720 193 720 l 193 720 l 635 720 q 673 720 704.5 701 q 736 682 755 650.5 q 774 619 774 581 l 774 581 l 774 139 q 774 101 755 69.5 q 736 38 704.5 19 q 673 0 635 0 l 635 0 z m 198 133 l 198 133 l 628 133 q 633 133 637 136.5 q 641 140 641 145 l 641 145 l 641 575 q 641 580 637 583.5 q 633 587 628 587 l 628 587 l 198 587 q 193 587 189.5 583.5 q 186 580 186 575 l 186 575 l 186 145 q 186 140 189.5 136.5 q 193 133 198 133 z m 582 780 l 450 780 l 450 780 l 450 912 l 582 912 l 582 780 z m 378 780 l 247 780 l 247 780 l 247 912 l 378 912 l 378 780 z"},"Ò":{"ha":828,"o":"m 635 0 l 193 0 q 155 0 123.5 19 q 92 38 73 69.5 q 54 101 54 139 l 54 139 l 54 581 q 54 619 73 650.5 q 92 682 123.5 701 q 155 720 193 720 l 193 720 l 635 720 q 673 720 704.5 701 q 736 682 755 650.5 q 774 619 774 581 l 774 581 l 774 139 q 774 101 755 69.5 q 736 38 704.5 19 q 673 0 635 0 l 635 0 z m 198 133 l 198 133 l 628 133 q 633 133 637 136.5 q 641 140 641 145 l 641 145 l 641 575 q 641 580 637 583.5 q 633 587 628 587 l 628 587 l 198 587 q 193 587 189.5 583.5 q 186 580 186 575 l 186 575 l 186 145 q 186 140 189.5 136.5 q 193 133 198 133 z m 489 780 l 355 780 l 355 780 l 309 963 l 443 963 l 489 780 z"},"Õ":{"ha":828,"o":"m 635 0 l 193 0 q 155 0 123.5 19 q 92 38 73 69.5 q 54 101 54 139 l 54 139 l 54 581 q 54 619 73 650.5 q 92 682 123.5 701 q 155 720 193 720 l 193 720 l 635 720 q 673 720 704.5 701 q 736 682 755 650.5 q 774 619 774 581 l 774 581 l 774 139 q 774 101 755 69.5 q 736 38 704.5 19 q 673 0 635 0 l 635 0 z m 198 133 l 198 133 l 628 133 q 633 133 637 136.5 q 641 140 641 145 l 641 145 l 641 575 q 641 580 637 583.5 q 633 587 628 587 l 628 587 l 198 587 q 193 587 189.5 583.5 q 186 580 186 575 l 186 575 l 186 145 q 186 140 189.5 136.5 q 193 133 198 133 z m 507 798 l 507 798 q 452 798 393 841 l 393 841 q 336 883 296 883 l 296 883 l 232 883 l 232 984 l 311 984 q 362 984 416 940 l 416 940 q 470 896 516 896 l 516 896 l 596 896 l 596 798 l 507 798 z"},"Œ":{"ha":1374,"o":"m 1303 0 l 192 0 q 154 0 122.5 19 q 91 38 72 69.5 q 53 101 53 139 l 53 139 l 53 581 q 53 619 72 650.5 q 91 682 122.5 701 q 154 720 192 720 l 192 720 l 1303 720 l 1303 587 l 773 587 l 773 427 l 1199 427 l 1199 293 l 773 293 l 773 133 l 1303 133 l 1303 0 z m 199 133 l 199 133 l 629 133 q 634 133 637.5 136.5 q 641 140 641 145 l 641 145 l 641 575 q 641 580 637.5 583.5 q 634 587 629 587 l 629 587 l 199 587 q 194 587 190 583.5 q 186 580 186 575 l 186 575 l 186 145 q 186 140 190 136.5 q 194 133 199 133 z"},"P":{"ha":791,"o":"m 188 0 l 56 0 l 56 719 l 636 719 q 674 719 706 700 q 738 681 757 649.5 q 776 618 776 580 l 776 580 l 776 386 q 776 348 757 316 q 738 284 706 265.5 q 674 247 636 247 l 636 247 l 188 246 l 188 0 z m 200 380 l 200 380 l 630 380 q 635 380 639 383 q 643 386 643 391 l 643 391 l 643 575 q 643 580 639 583.5 q 635 587 630 587 l 630 587 l 200 587 q 195 587 191.5 583.5 q 188 580 188 575 l 188 575 l 188 391 q 188 386 191.5 383 q 195 380 200 380 z"},"Q":{"ha":884,"o":"m 860 0 l 628 0 l 628 110 l 774 146 l 774 133 l 860 133 l 860 0 z m 635 0 l 193 0 q 155 0 123.5 19 q 92 38 73 69.5 q 54 101 54 139 l 54 139 l 54 581 q 54 619 73 650.5 q 92 682 123.5 701 q 155 720 193 720 l 193 720 l 635 720 q 673 720 704.5 701 q 736 682 755 650.5 q 774 619 774 581 l 774 581 l 774 139 q 774 101 755 69.5 q 736 38 704.5 19 q 673 0 635 0 l 635 0 z m 198 133 l 198 133 l 628 133 q 633 133 637 136.5 q 641 140 641 145 l 641 145 l 641 575 q 641 580 637 583.5 q 633 587 628 587 l 628 587 l 198 587 q 193 587 189.5 583.5 q 186 580 186 575 l 186 575 l 186 145 q 186 140 189.5 136.5 q 193 133 198 133 z"},"R":{"ha":825,"o":"m 774 0 l 630 0 l 413 259 l 586 259 l 774 37 l 774 0 z m 188 0 l 56 0 l 56 719 l 636 719 q 674 719 706 700 q 738 681 757 649.5 q 776 618 776 580 l 776 580 l 776 386 q 776 348 757 316 q 738 284 706 265.5 q 674 247 636 247 l 636 247 l 188 246 l 188 0 z m 200 380 l 200 380 l 630 380 q 635 380 639 383 q 643 386 643 391 l 643 391 l 643 575 q 643 580 639 583.5 q 635 587 630 587 l 630 587 l 200 587 q 195 587 191.5 583.5 q 188 580 188 575 l 188 575 l 188 391 q 188 386 191.5 383 q 195 380 200 380 z"},"S":{"ha":826,"o":"m 634 0 l 192 0 q 154 0 122.5 19 q 91 38 72 69.5 q 53 101 53 139 l 53 139 l 53 194 l 185 194 l 185 145 q 185 140 188.5 136.5 q 192 133 197 133 l 197 133 l 628 133 q 633 133 636.5 136.5 q 640 140 640 145 l 640 145 l 640 282 q 640 287 636.5 290 q 633 293 628 293 l 628 293 l 192 293 q 154 293 122.5 312 q 91 331 72 362.5 q 53 394 53 433 l 53 433 l 53 581 q 53 619 72 650.5 q 91 682 122.5 701 q 154 720 192 720 l 192 720 l 634 720 q 672 720 703.5 701 q 735 682 754 650.5 q 773 619 773 581 l 773 581 l 773 526 l 640 526 l 640 575 q 640 580 636.5 583.5 q 633 587 628 587 l 628 587 l 197 587 q 192 587 188.5 583.5 q 185 580 185 575 l 185 575 l 185 438 q 185 433 188.5 430 q 192 427 197 427 l 197 427 l 634 427 q 672 427 703.5 408 q 735 389 754 357.5 q 773 326 773 287 l 773 287 l 773 139 q 773 101 754 69.5 q 735 38 703.5 19 q 672 0 634 0 l 634 0 z"},"Š":{"ha":826,"o":"m 634 0 l 192 0 q 154 0 122.5 19 q 91 38 72 69.5 q 53 101 53 139 l 53 139 l 53 194 l 185 194 l 185 145 q 185 140 188.5 136.5 q 192 133 197 133 l 197 133 l 628 133 q 633 133 636.5 136.5 q 640 140 640 145 l 640 145 l 640 282 q 640 287 636.5 290 q 633 293 628 293 l 628 293 l 192 293 q 154 293 122.5 312 q 91 331 72 362.5 q 53 394 53 433 l 53 433 l 53 581 q 53 619 72 650.5 q 91 682 122.5 701 q 154 720 192 720 l 192 720 l 634 720 q 672 720 703.5 701 q 735 682 754 650.5 q 773 619 773 581 l 773 581 l 773 526 l 640 526 l 640 575 q 640 580 636.5 583.5 q 633 587 628 587 l 628 587 l 197 587 q 192 587 188.5 583.5 q 185 580 185 575 l 185 575 l 185 438 q 185 433 188.5 430 q 192 427 197 427 l 197 427 l 634 427 q 672 427 703.5 408 q 735 389 754 357.5 q 773 326 773 287 l 773 287 l 773 139 q 773 101 754 69.5 q 735 38 703.5 19 q 672 0 634 0 l 634 0 z m 458 780 l 371 780 l 371 780 l 272 943 l 376 943 l 413 886 l 450 943 l 555 943 l 458 780 z"},"T":{"ha":759,"o":"m 447 0 l 314 0 l 314 0 l 314 587 l 20 587 l 20 720 l 740 720 l 740 587 l 447 587 l 447 0 z"},"U":{"ha":828,"o":"m 193 0 l 193 0 q 155 0 123.5 19 q 92 38 73 69.5 q 54 101 54 139 l 54 139 l 54 720 l 186 720 l 186 145 q 186 140 189.5 136.5 q 193 133 198 133 l 198 133 l 628 133 q 633 133 637 136.5 q 641 140 641 145 l 641 145 l 641 720 l 774 720 l 774 139 q 774 101 755 69.5 q 736 38 704.5 19 q 673 0 635 0 l 635 0 l 193 0 z"},"Ú":{"ha":828,"o":"m 193 0 l 193 0 q 155 0 123.5 19 q 92 38 73 69.5 q 54 101 54 139 l 54 139 l 54 720 l 186 720 l 186 145 q 186 140 189.5 136.5 q 193 133 198 133 l 198 133 l 628 133 q 633 133 637 136.5 q 641 140 641 145 l 641 145 l 641 720 l 774 720 l 774 139 q 774 101 755 69.5 q 736 38 704.5 19 q 673 0 635 0 l 635 0 l 193 0 z m 475 780 l 341 780 l 341 780 l 388 963 l 520 963 l 475 780 z"},"Û":{"ha":828,"o":"m 193 0 l 193 0 q 155 0 123.5 19 q 92 38 73 69.5 q 54 101 54 139 l 54 139 l 54 720 l 186 720 l 186 145 q 186 140 189.5 136.5 q 193 133 198 133 l 198 133 l 628 133 q 633 133 637 136.5 q 641 140 641 145 l 641 145 l 641 720 l 774 720 l 774 139 q 774 101 755 69.5 q 736 38 704.5 19 q 673 0 635 0 l 635 0 l 193 0 z m 378 789 l 267 789 l 267 789 l 368 959 l 462 959 l 563 789 l 451 789 l 414 852 l 378 789 z"},"Ü":{"ha":828,"o":"m 193 0 l 193 0 q 155 0 123.5 19 q 92 38 73 69.5 q 54 101 54 139 l 54 139 l 54 720 l 186 720 l 186 145 q 186 140 189.5 136.5 q 193 133 198 133 l 198 133 l 628 133 q 633 133 637 136.5 q 641 140 641 145 l 641 145 l 641 720 l 774 720 l 774 139 q 774 101 755 69.5 q 736 38 704.5 19 q 673 0 635 0 l 635 0 l 193 0 z m 582 780 l 450 780 l 450 780 l 450 912 l 582 912 l 582 780 z m 378 780 l 247 780 l 247 780 l 247 912 l 378 912 l 378 780 z"},"Ù":{"ha":828,"o":"m 193 0 l 193 0 q 155 0 123.5 19 q 92 38 73 69.5 q 54 101 54 139 l 54 139 l 54 720 l 186 720 l 186 145 q 186 140 189.5 136.5 q 193 133 198 133 l 198 133 l 628 133 q 633 133 637 136.5 q 641 140 641 145 l 641 145 l 641 720 l 774 720 l 774 139 q 774 101 755 69.5 q 736 38 704.5 19 q 673 0 635 0 l 635 0 l 193 0 z m 489 780 l 355 780 l 355 780 l 309 963 l 443 963 l 489 780 z"},"V":{"ha":1003,"o":"m 570 0 l 452 0 l 452 0 l 35 720 l 189 720 l 511 160 l 834 720 l 987 720 l 570 0 z"},"W":{"ha":1179,"o":"m 401 0 l 297 0 l 297 0 l 35 720 l 175 720 l 349 245 l 523 720 l 652 720 l 826 245 l 999 720 l 1140 720 l 878 0 l 774 0 l 587 510 l 401 0 z"},"X":{"ha":812,"o":"m 189 0 l 46 0 l 46 0 l 46 37 l 317 360 l 46 683 l 46 720 l 189 720 l 405 464 l 619 720 l 763 720 l 763 683 l 491 360 l 763 38 l 763 0 l 619 0 l 404 255 l 189 0 z"},"Y":{"ha":806,"o":"m 469 0 l 336 0 l 336 0 l 336 270 l 4 720 l 160 720 l 403 415 l 643 720 l 802 720 l 469 269 l 469 0 z"},"Ý":{"ha":806,"o":"m 469 0 l 336 0 l 336 0 l 336 270 l 4 720 l 160 720 l 403 415 l 643 720 l 802 720 l 469 269 l 469 0 z m 463 780 l 329 780 l 329 780 l 376 963 l 508 963 l 463 780 z"},"Ÿ":{"ha":806,"o":"m 469 0 l 336 0 l 336 0 l 336 270 l 4 720 l 160 720 l 403 415 l 643 720 l 802 720 l 469 269 l 469 0 z m 570 780 l 438 780 l 438 780 l 438 912 l 570 912 l 570 780 z m 366 780 l 235 780 l 235 780 l 235 912 l 366 912 l 366 780 z"},"Z":{"ha":821,"o":"m 771 0 l 51 0 l 51 0 l 51 144 l 578 587 l 51 587 l 51 720 l 771 720 l 771 576 l 244 133 l 771 133 l 771 0 z"},"Ž":{"ha":821,"o":"m 771 0 l 51 0 l 51 0 l 51 144 l 578 587 l 51 587 l 51 720 l 771 720 l 771 576 l 244 133 l 771 133 l 771 0 z m 455 780 l 368 780 l 368 780 l 269 943 l 373 943 l 410 886 l 447 943 l 552 943 l 455 780 z"},"a":{"ha":694,"o":"m 641 0 l 190 0 q 152 0 120.5 19 q 89 38 70.5 69 q 52 100 52 138 l 52 138 l 52 356 l 510 356 l 510 437 q 510 442 506.5 445.5 q 503 449 498 449 l 498 449 l 52 449 l 52 580 l 503 580 q 541 580 572.5 561 q 604 542 622.5 511 q 641 480 641 442 l 641 442 l 641 0 z m 195 131 l 195 131 l 510 131 l 510 238 l 183 238 l 183 143 q 183 138 186.5 134.5 q 190 131 195 131 z"},"á":{"ha":694,"o":"m 641 0 l 190 0 q 152 0 120.5 19 q 89 38 70.5 69 q 52 100 52 138 l 52 138 l 52 356 l 510 356 l 510 437 q 510 442 506.5 445.5 q 503 449 498 449 l 498 449 l 52 449 l 52 580 l 503 580 q 541 580 572.5 561 q 604 542 622.5 511 q 641 480 641 442 l 641 442 l 641 0 z m 195 131 l 195 131 l 510 131 l 510 238 l 183 238 l 183 143 q 183 138 186.5 134.5 q 190 131 195 131 z m 428 640 l 294 640 l 294 640 l 341 823 l 473 823 l 428 640 z"},"â":{"ha":694,"o":"m 641 0 l 190 0 q 152 0 120.5 19 q 89 38 70.5 69 q 52 100 52 138 l 52 138 l 52 356 l 510 356 l 510 437 q 510 442 506.5 445.5 q 503 449 498 449 l 498 449 l 52 449 l 52 580 l 503 580 q 541 580 572.5 561 q 604 542 622.5 511 q 641 480 641 442 l 641 442 l 641 0 z m 195 131 l 195 131 l 510 131 l 510 238 l 183 238 l 183 143 q 183 138 186.5 134.5 q 190 131 195 131 z m 331 649 l 220 649 l 220 649 l 321 819 l 415 819 l 516 649 l 404 649 l 367 712 l 331 649 z"},"ä":{"ha":694,"o":"m 641 0 l 190 0 q 152 0 120.5 19 q 89 38 70.5 69 q 52 100 52 138 l 52 138 l 52 356 l 510 356 l 510 437 q 510 442 506.5 445.5 q 503 449 498 449 l 498 449 l 52 449 l 52 580 l 503 580 q 541 580 572.5 561 q 604 542 622.5 511 q 641 480 641 442 l 641 442 l 641 0 z m 195 131 l 195 131 l 510 131 l 510 238 l 183 238 l 183 143 q 183 138 186.5 134.5 q 190 131 195 131 z m 535 640 l 403 640 l 403 640 l 403 772 l 535 772 l 535 640 z m 331 640 l 200 640 l 200 640 l 200 772 l 331 772 l 331 640 z"},"à":{"ha":694,"o":"m 641 0 l 190 0 q 152 0 120.5 19 q 89 38 70.5 69 q 52 100 52 138 l 52 138 l 52 356 l 510 356 l 510 437 q 510 442 506.5 445.5 q 503 449 498 449 l 498 449 l 52 449 l 52 580 l 503 580 q 541 580 572.5 561 q 604 542 622.5 511 q 641 480 641 442 l 641 442 l 641 0 z m 195 131 l 195 131 l 510 131 l 510 238 l 183 238 l 183 143 q 183 138 186.5 134.5 q 190 131 195 131 z m 442 640 l 308 640 l 308 640 l 262 823 l 396 823 l 442 640 z"},"å":{"ha":694,"o":"m 641 0 l 190 0 q 152 0 120.5 19 q 89 38 70.5 69 q 52 100 52 138 l 52 138 l 52 356 l 510 356 l 510 437 q 510 442 506.5 445.5 q 503 449 498 449 l 498 449 l 52 449 l 52 580 l 503 580 q 541 580 572.5 561 q 604 542 622.5 511 q 641 480 641 442 l 641 442 l 641 0 z m 195 131 l 195 131 l 510 131 l 510 238 l 183 238 l 183 143 q 183 138 186.5 134.5 q 190 131 195 131 z m 394 647 l 341 647 q 313 647 292 667 q 271 687 271 715 l 271 715 l 271 766 q 271 794 292 814.5 q 313 835 341 835 l 341 835 l 394 835 q 422 835 442.5 814.5 q 463 794 463 766 l 463 766 l 463 715 q 463 687 442.5 667 q 422 647 394 647 l 394 647 z m 340 707 l 340 707 l 394 707 q 396 707 396.5 707.5 q 397 708 397 710 l 397 710 l 397 765 q 397 767 396.5 768 q 396 769 394 769 l 394 769 l 340 769 q 338 769 337.5 768 q 337 767 337 765 l 337 765 l 337 710 q 337 708 337.5 707.5 q 338 707 340 707 z"},"ã":{"ha":694,"o":"m 641 0 l 190 0 q 152 0 120.5 19 q 89 38 70.5 69 q 52 100 52 138 l 52 138 l 52 356 l 510 356 l 510 437 q 510 442 506.5 445.5 q 503 449 498 449 l 498 449 l 52 449 l 52 580 l 503 580 q 541 580 572.5 561 q 604 542 622.5 511 q 641 480 641 442 l 641 442 l 641 0 z m 195 131 l 195 131 l 510 131 l 510 238 l 183 238 l 183 143 q 183 138 186.5 134.5 q 190 131 195 131 z m 460 658 l 460 658 q 405 658 346 701 l 346 701 q 289 743 249 743 l 249 743 l 185 743 l 185 844 l 264 844 q 315 844 369 800 l 369 800 q 423 756 469 756 l 469 756 l 549 756 l 549 658 l 460 658 z"},"æ":{"ha":1178,"o":"m 1100 0 l 190 0 q 151 0 120 19 q 89 38 70.5 69 q 52 100 52 138 l 52 138 l 52 356 l 510 356 l 510 437 q 510 442 506.5 445.5 q 503 449 498 449 l 498 449 l 52 449 l 52 580 l 962 580 q 1001 580 1032 561 q 1063 542 1081.5 511 q 1100 480 1100 442 l 1100 442 l 1100 224 l 642 224 l 642 142 q 643 137 646.5 134 q 650 131 654 131 l 654 131 l 1100 131 l 1100 0 z m 195 131 l 195 131 l 510 131 l 510 238 l 183 238 l 183 143 q 183 138 186.5 134.5 q 190 131 195 131 z m 642 437 l 642 342 l 969 342 l 969 437 q 969 442 965.5 445.5 q 962 449 957 449 l 957 449 l 654 449 q 649 449 645.5 445.5 q 642 442 642 437 l 642 437 z"},"b":{"ha":667,"o":"m 505 0 l 54 0 l 54 0 l 54 770 l 185 770 l 185 580 l 505 580 q 543 580 574.5 561 q 606 542 624.5 511 q 643 480 643 442 l 643 442 l 643 138 q 643 100 624.5 69 q 606 38 574.5 19 q 543 0 505 0 l 505 0 z m 197 131 l 197 131 l 500 131 q 505 131 508.5 134.5 q 512 138 512 143 l 512 143 l 512 437 q 512 442 508.5 445.5 q 505 449 500 449 l 500 449 l 197 449 q 192 449 188.5 445.5 q 185 442 185 437 l 185 437 l 185 143 q 185 138 188.5 134.5 q 192 131 197 131 z"},"c":{"ha":695,"o":"m 189 0 l 189 0 q 151 0 120 19 q 89 38 70 69 q 51 100 51 138 l 51 138 l 51 442 q 51 480 70 511 q 89 542 120 561 q 151 580 189 580 l 189 580 l 639 580 l 639 449 l 194 449 q 189 449 185.5 445.5 q 182 442 182 437 l 182 437 l 182 143 q 182 138 185.5 134.5 q 189 131 194 131 l 194 131 l 640 131 l 640 0 l 189 0 z"},"ç":{"ha":695,"o":"m 189 0 l 189 0 q 151 0 120 19 q 89 38 70 69 q 51 100 51 138 l 51 138 l 51 442 q 51 480 70 511 q 89 542 120 561 q 151 580 189 580 l 189 580 l 639 580 l 639 449 l 194 449 q 189 449 185.5 445.5 q 182 442 182 437 l 182 437 l 182 143 q 182 138 185.5 134.5 q 189 131 194 131 l 194 131 l 640 131 l 640 0 l 189 0 z m 396 -151 l 262 -151 l 310 15 l 443 15 l 396 -151 z"},"d":{"ha":667,"o":"m 161 0 l 161 0 q 122 0 91 19 q 60 38 41.5 69 q 23 100 23 138 l 23 138 l 23 442 q 23 480 41.5 511 q 60 542 91 561 q 122 580 161 580 l 161 580 l 482 580 l 482 770 l 613 770 l 613 0 l 161 0 z m 167 131 l 167 131 l 470 131 q 475 131 478.5 134.5 q 482 138 482 143 l 482 143 l 482 437 q 482 442 478.5 445.5 q 475 449 470 449 l 470 449 l 167 449 q 162 449 158.5 445.5 q 155 442 155 437 l 155 437 l 155 143 q 155 138 158.5 134.5 q 162 131 167 131 z"},"e":{"ha":692,"o":"m 189 0 l 189 0 q 151 0 120 19 q 89 38 70 69 q 51 100 51 138 l 51 138 l 51 442 q 51 480 70 511 q 89 542 120 561 q 151 580 189 580 l 189 580 l 502 580 q 540 580 571.5 561 q 603 542 621.5 511 q 640 480 640 442 l 640 442 l 640 224 l 182 224 l 182 143 q 182 138 185.5 134.5 q 189 131 194 131 l 194 131 l 640 131 l 640 0 l 189 0 z m 182 437 l 182 342 l 509 342 l 509 437 q 509 442 505.5 445.5 q 502 449 497 449 l 497 449 l 194 449 q 189 449 185.5 445.5 q 182 442 182 437 l 182 437 z"},"é":{"ha":692,"o":"m 189 0 l 189 0 q 151 0 120 19 q 89 38 70 69 q 51 100 51 138 l 51 138 l 51 442 q 51 480 70 511 q 89 542 120 561 q 151 580 189 580 l 189 580 l 502 580 q 540 580 571.5 561 q 603 542 621.5 511 q 640 480 640 442 l 640 442 l 640 224 l 182 224 l 182 143 q 182 138 185.5 134.5 q 189 131 194 131 l 194 131 l 640 131 l 640 0 l 189 0 z m 182 437 l 182 342 l 509 342 l 509 437 q 509 442 505.5 445.5 q 502 449 497 449 l 497 449 l 194 449 q 189 449 185.5 445.5 q 182 442 182 437 l 182 437 z m 407 640 l 273 640 l 273 640 l 320 823 l 452 823 l 407 640 z"},"ê":{"ha":692,"o":"m 189 0 l 189 0 q 151 0 120 19 q 89 38 70 69 q 51 100 51 138 l 51 138 l 51 442 q 51 480 70 511 q 89 542 120 561 q 151 580 189 580 l 189 580 l 502 580 q 540 580 571.5 561 q 603 542 621.5 511 q 640 480 640 442 l 640 442 l 640 224 l 182 224 l 182 143 q 182 138 185.5 134.5 q 189 131 194 131 l 194 131 l 640 131 l 640 0 l 189 0 z m 182 437 l 182 342 l 509 342 l 509 437 q 509 442 505.5 445.5 q 502 449 497 449 l 497 449 l 194 449 q 189 449 185.5 445.5 q 182 442 182 437 l 182 437 z m 309 649 l 198 649 l 198 649 l 299 819 l 393 819 l 494 649 l 382 649 l 345 712 l 309 649 z"},"ë":{"ha":692,"o":"m 189 0 l 189 0 q 151 0 120 19 q 89 38 70 69 q 51 100 51 138 l 51 138 l 51 442 q 51 480 70 511 q 89 542 120 561 q 151 580 189 580 l 189 580 l 502 580 q 540 580 571.5 561 q 603 542 621.5 511 q 640 480 640 442 l 640 442 l 640 224 l 182 224 l 182 143 q 182 138 185.5 134.5 q 189 131 194 131 l 194 131 l 640 131 l 640 0 l 189 0 z m 182 437 l 182 342 l 509 342 l 509 437 q 509 442 505.5 445.5 q 502 449 497 449 l 497 449 l 194 449 q 189 449 185.5 445.5 q 182 442 182 437 l 182 437 z m 514 640 l 382 640 l 382 640 l 382 772 l 514 772 l 514 640 z m 310 640 l 179 640 l 179 640 l 179 772 l 310 772 l 310 640 z"},"è":{"ha":692,"o":"m 189 0 l 189 0 q 151 0 120 19 q 89 38 70 69 q 51 100 51 138 l 51 138 l 51 442 q 51 480 70 511 q 89 542 120 561 q 151 580 189 580 l 189 580 l 502 580 q 540 580 571.5 561 q 603 542 621.5 511 q 640 480 640 442 l 640 442 l 640 224 l 182 224 l 182 143 q 182 138 185.5 134.5 q 189 131 194 131 l 194 131 l 640 131 l 640 0 l 189 0 z m 182 437 l 182 342 l 509 342 l 509 437 q 509 442 505.5 445.5 q 502 449 497 449 l 497 449 l 194 449 q 189 449 185.5 445.5 q 182 442 182 437 l 182 437 z m 421 640 l 287 640 l 287 640 l 241 823 l 375 823 l 421 640 z"},"f":{"ha":430,"o":"m 184 0 l 53 0 l 53 0 l 53 632 q 53 670 72 701 q 91 732 122 751 q 153 770 191 770 l 191 770 l 410 770 l 410 638 l 196 638 q 191 638 187.5 634.5 q 184 631 184 626 l 184 626 l 184 580 l 410 580 l 410 449 l 184 449 l 184 0 z"},"g":{"ha":683,"o":"m 493 -229 l 138 -229 l 138 -229 l 138 -97 l 487 -97 q 492 -97 495.5 -93.5 q 499 -90 499 -85 l 499 -85 l 499 0 l 179 0 q 142 0 110.5 19 q 79 38 60 69 q 41 100 41 138 l 41 138 l 41 442 q 41 480 60 511 q 79 542 110.5 561 q 142 580 179 580 l 179 580 l 493 580 q 531 580 562 561 q 593 542 611.5 511 q 630 480 630 442 l 630 442 l 630 -91 q 630 -130 612 -161 q 594 -192 562.5 -210.5 q 531 -229 493 -229 l 493 -229 z m 184 131 l 184 131 l 487 131 q 492 131 495.5 134.5 q 499 138 499 143 l 499 143 l 499 437 q 499 442 495.5 445.5 q 492 449 487 449 l 487 449 l 184 449 q 179 449 175.5 445.5 q 172 442 172 437 l 172 437 l 172 143 q 172 138 175.5 134.5 q 179 131 184 131 z"},"h":{"ha":668,"o":"m 185 0 l 54 0 l 54 0 l 54 770 l 185 770 l 185 580 l 505 580 q 543 580 574 561 q 605 542 624 511 q 643 480 643 442 l 643 442 l 643 0 l 512 0 l 512 437 q 512 442 508.5 445.5 q 505 449 500 449 l 500 449 l 197 449 q 192 449 188.5 445.5 q 185 442 185 437 l 185 437 l 185 0 z"},"i":{"ha":222,"o":"m 183 0 l 52 0 l 52 0 l 52 580 l 183 580 l 183 0 z m 183 638 l 52 638 l 52 638 l 52 770 l 183 770 l 183 638 z"},"ı":{"ha":214,"o":"m 173 0 l 42 0 l 42 0 l 42 580 l 173 580 l 173 0 z"},"í":{"ha":214,"o":"m 173 0 l 42 0 l 42 0 l 42 580 l 173 580 l 173 0 z m 168 640 l 34 640 l 34 640 l 81 823 l 213 823 l 168 640 z"},"î":{"ha":214,"o":"m 173 0 l 42 0 l 42 0 l 42 580 l 173 580 l 173 0 z m 71 649 l -40 649 l -40 649 l 61 819 l 155 819 l 256 649 l 144 649 l 107 712 l 71 649 z"},"ï":{"ha":214,"o":"m 173 0 l 42 0 l 42 0 l 42 580 l 173 580 l 173 0 z m 275 640 l 143 640 l 143 640 l 143 772 l 275 772 l 275 640 z m 71 640 l -60 640 l -60 640 l -60 772 l 71 772 l 71 640 z"},"ì":{"ha":214,"o":"m 173 0 l 42 0 l 42 0 l 42 580 l 173 580 l 173 0 z m 182 640 l 48 640 l 48 640 l 2 823 l 136 823 l 182 640 z"},"j":{"ha":239,"o":"m 63 -219 l -187 -219 l -187 -219 l -187 -87 l 58 -87 q 63 -87 66.5 -83.5 q 70 -80 70 -75 l 70 -75 l 70 580 l 201 580 l 201 -81 q 201 -119 182.5 -150.5 q 164 -182 132.5 -200.5 q 101 -219 63 -219 l 63 -219 z m 201 638 l 70 638 l 70 638 l 70 770 l 201 770 l 201 638 z"},"k":{"ha":646,"o":"m 185 0 l 54 0 l 54 0 l 54 770 l 185 770 l 185 356 l 288 356 l 495 580 l 635 580 l 635 544 l 404 290 l 634 36 l 634 0 l 495 0 l 288 224 l 185 224 l 185 0 z"},"l":{"ha":326,"o":"m 190 0 l 190 0 q 152 0 121 19 q 90 38 71 69 q 52 100 52 138 l 52 138 l 52 771 l 184 771 l 184 143 q 184 138 187.5 134.5 q 191 131 196 131 l 196 131 l 307 131 l 307 0 l 190 0 z"},"m":{"ha":978,"o":"m 185 0 l 54 0 l 54 0 l 54 580 l 773 580 q 812 580 843 561 q 874 542 892.5 511 q 911 480 911 442 l 911 442 l 911 0 l 781 0 l 781 437 q 781 442 777 445.5 q 773 449 768 449 l 768 449 l 561 449 q 556 449 552.5 445.5 q 549 442 549 437 l 549 437 l 549 0 l 417 0 l 417 437 q 417 442 413.5 445.5 q 410 449 405 449 l 405 449 l 197 449 q 192 449 188.5 445.5 q 185 442 185 437 l 185 437 l 185 0 z"},"n":{"ha":696,"o":"m 185 0 l 54 0 l 54 0 l 54 580 l 505 580 q 543 580 574.5 561 q 606 542 624.5 511 q 643 480 643 442 l 643 442 l 643 0 l 512 0 l 512 437 q 512 442 508.5 445.5 q 505 449 500 449 l 500 449 l 197 449 q 192 449 188.5 445.5 q 185 442 185 437 l 185 437 l 185 0 z"},"ñ":{"ha":696,"o":"m 185 0 l 54 0 l 54 0 l 54 580 l 505 580 q 543 580 574.5 561 q 606 542 624.5 511 q 643 480 643 442 l 643 442 l 643 0 l 512 0 l 512 437 q 512 442 508.5 445.5 q 505 449 500 449 l 500 449 l 197 449 q 192 449 188.5 445.5 q 185 442 185 437 l 185 437 l 185 0 z m 432 658 l 432 658 q 377 658 318 701 l 318 701 q 261 743 221 743 l 221 743 l 157 743 l 157 844 l 236 844 q 287 844 341 800 l 341 800 q 395 756 441 756 l 441 756 l 521 756 l 521 658 l 432 658 z"},"o":{"ha":692,"o":"m 189 0 l 189 0 q 151 0 120 19 q 89 38 70 69 q 51 100 51 138 l 51 138 l 51 442 q 51 480 70 511 q 89 542 120 561 q 151 580 189 580 l 189 580 l 502 580 q 540 580 571.5 561 q 603 542 621.5 511 q 640 480 640 442 l 640 442 l 640 138 q 640 100 621.5 69 q 603 38 572 19 q 541 0 502 0 l 502 0 l 189 0 z m 194 131 l 194 131 l 497 131 q 502 131 505.5 134.5 q 509 138 509 143 l 509 143 l 509 437 q 509 442 505.5 445.5 q 502 449 497 449 l 497 449 l 194 449 q 189 449 185.5 445.5 q 182 442 182 437 l 182 437 l 182 143 q 182 138 185.5 134.5 q 189 131 194 131 z"},"ó":{"ha":692,"o":"m 189 0 l 189 0 q 151 0 120 19 q 89 38 70 69 q 51 100 51 138 l 51 138 l 51 442 q 51 480 70 511 q 89 542 120 561 q 151 580 189 580 l 189 580 l 502 580 q 540 580 571.5 561 q 603 542 621.5 511 q 640 480 640 442 l 640 442 l 640 138 q 640 100 621.5 69 q 603 38 572 19 q 541 0 502 0 l 502 0 l 189 0 z m 194 131 l 194 131 l 497 131 q 502 131 505.5 134.5 q 509 138 509 143 l 509 143 l 509 437 q 509 442 505.5 445.5 q 502 449 497 449 l 497 449 l 194 449 q 189 449 185.5 445.5 q 182 442 182 437 l 182 437 l 182 143 q 182 138 185.5 134.5 q 189 131 194 131 z m 406 638 l 272 638 l 272 638 l 319 821 l 451 821 l 406 638 z"},"ô":{"ha":692,"o":"m 189 0 l 189 0 q 151 0 120 19 q 89 38 70 69 q 51 100 51 138 l 51 138 l 51 442 q 51 480 70 511 q 89 542 120 561 q 151 580 189 580 l 189 580 l 502 580 q 540 580 571.5 561 q 603 542 621.5 511 q 640 480 640 442 l 640 442 l 640 138 q 640 100 621.5 69 q 603 38 572 19 q 541 0 502 0 l 502 0 l 189 0 z m 194 131 l 194 131 l 497 131 q 502 131 505.5 134.5 q 509 138 509 143 l 509 143 l 509 437 q 509 442 505.5 445.5 q 502 449 497 449 l 497 449 l 194 449 q 189 449 185.5 445.5 q 182 442 182 437 l 182 437 l 182 143 q 182 138 185.5 134.5 q 189 131 194 131 z m 309 647 l 198 647 l 198 647 l 299 817 l 393 817 l 494 647 l 382 647 l 345 710 l 309 647 z"},"ö":{"ha":692,"o":"m 189 0 l 189 0 q 151 0 120 19 q 89 38 70 69 q 51 100 51 138 l 51 138 l 51 442 q 51 480 70 511 q 89 542 120 561 q 151 580 189 580 l 189 580 l 502 580 q 540 580 571.5 561 q 603 542 621.5 511 q 640 480 640 442 l 640 442 l 640 138 q 640 100 621.5 69 q 603 38 572 19 q 541 0 502 0 l 502 0 l 189 0 z m 194 131 l 194 131 l 497 131 q 502 131 505.5 134.5 q 509 138 509 143 l 509 143 l 509 437 q 509 442 505.5 445.5 q 502 449 497 449 l 497 449 l 194 449 q 189 449 185.5 445.5 q 182 442 182 437 l 182 437 l 182 143 q 182 138 185.5 134.5 q 189 131 194 131 z m 513 638 l 381 638 l 381 638 l 381 770 l 513 770 l 513 638 z m 309 638 l 178 638 l 178 638 l 178 770 l 309 770 l 309 638 z"},"ò":{"ha":692,"o":"m 189 0 l 189 0 q 151 0 120 19 q 89 38 70 69 q 51 100 51 138 l 51 138 l 51 442 q 51 480 70 511 q 89 542 120 561 q 151 580 189 580 l 189 580 l 502 580 q 540 580 571.5 561 q 603 542 621.5 511 q 640 480 640 442 l 640 442 l 640 138 q 640 100 621.5 69 q 603 38 572 19 q 541 0 502 0 l 502 0 l 189 0 z m 194 131 l 194 131 l 497 131 q 502 131 505.5 134.5 q 509 138 509 143 l 509 143 l 509 437 q 509 442 505.5 445.5 q 502 449 497 449 l 497 449 l 194 449 q 189 449 185.5 445.5 q 182 442 182 437 l 182 437 l 182 143 q 182 138 185.5 134.5 q 189 131 194 131 z m 420 638 l 286 638 l 286 638 l 240 821 l 374 821 l 420 638 z"},"õ":{"ha":692,"o":"m 189 0 l 189 0 q 151 0 120 19 q 89 38 70 69 q 51 100 51 138 l 51 138 l 51 442 q 51 480 70 511 q 89 542 120 561 q 151 580 189 580 l 189 580 l 502 580 q 540 580 571.5 561 q 603 542 621.5 511 q 640 480 640 442 l 640 442 l 640 138 q 640 100 621.5 69 q 603 38 572 19 q 541 0 502 0 l 502 0 l 189 0 z m 194 131 l 194 131 l 497 131 q 502 131 505.5 134.5 q 509 138 509 143 l 509 143 l 509 437 q 509 442 505.5 445.5 q 502 449 497 449 l 497 449 l 194 449 q 189 449 185.5 445.5 q 182 442 182 437 l 182 437 l 182 143 q 182 138 185.5 134.5 q 189 131 194 131 z m 438 656 l 438 656 q 383 656 324 699 l 324 699 q 267 741 227 741 l 227 741 l 163 741 l 163 842 l 242 842 q 293 842 347 798 l 347 798 q 401 754 447 754 l 447 754 l 527 754 l 527 656 l 438 656 z"},"œ":{"ha":1177,"o":"m 190 0 l 190 0 q 152 0 120.5 19 q 89 38 70.5 69 q 52 100 52 138 l 52 138 l 52 442 q 52 480 70.5 511 q 89 542 120.5 561 q 152 580 190 580 l 190 580 l 962 580 q 1000 580 1031 561 q 1062 542 1080.5 511 q 1099 480 1099 442 l 1099 442 l 1099 224 l 641 224 l 641 143 q 641 138 644.5 134.5 q 648 131 653 131 l 653 131 l 1099 131 l 1099 0 l 190 0 z m 195 131 l 195 131 l 195 131 l 498 131 q 503 131 506.5 134.5 q 510 138 510 143 l 510 143 l 510 437 q 510 442 506.5 445.5 q 503 449 498 449 l 498 449 l 195 449 q 190 449 186.5 445.5 q 183 442 183 437 l 183 437 l 183 143 q 183 138 186.5 134.5 q 190 131 195 131 z m 641 437 l 641 342 l 641 342 l 968 342 l 968 437 q 968 442 964.5 445.5 q 961 449 956 449 l 956 449 l 653 449 q 648 449 644.5 445.5 q 641 442 641 437 l 641 437 z"},"p":{"ha":664,"o":"m 185 -230 l 54 -230 l 54 -230 l 54 580 l 505 580 q 543 580 574.5 561 q 606 542 624.5 511 q 643 480 643 442 l 643 442 l 643 138 q 643 100 624.5 69 q 606 38 574.5 19 q 543 0 505 0 l 505 0 l 185 0 l 185 -230 z m 197 131 l 197 131 l 500 131 q 505 131 508.5 134.5 q 512 138 512 143 l 512 143 l 512 437 q 512 442 508.5 445.5 q 505 449 500 449 l 500 449 l 197 449 q 192 449 188.5 445.5 q 185 442 185 437 l 185 437 l 185 143 q 185 138 188.5 134.5 q 192 131 197 131 z"},"q":{"ha":664,"o":"m 610 -230 l 479 -230 l 479 -230 l 479 0 l 158 0 q 119 0 88 19 q 57 38 38.5 69 q 20 100 20 138 l 20 138 l 20 442 q 20 480 38.5 511 q 57 542 88 561 q 119 580 158 580 l 158 580 l 610 580 l 610 -230 z m 164 131 l 164 131 l 467 131 q 472 131 475.5 134.5 q 479 138 479 143 l 479 143 l 479 437 q 479 442 475.5 445.5 q 472 449 467 449 l 467 449 l 164 449 q 159 449 155.5 445.5 q 152 442 152 437 l 152 437 l 152 143 q 152 138 155.5 134.5 q 159 131 164 131 z"},"r":{"ha":522,"o":"m 183 0 l 52 0 l 52 0 l 52 442 q 52 480 71 511 q 90 542 121.5 561 q 153 580 190 580 l 190 580 l 512 580 l 512 449 l 195 449 q 190 449 186.5 445.5 q 183 442 183 437 l 183 437 l 183 0 z"},"s":{"ha":686,"o":"m 186 0 l 186 0 q 148 0 117 19 q 86 38 67 69 q 48 100 48 138 l 48 138 l 48 160 l 179 160 l 179 143 q 179 138 182.5 134.5 q 186 131 191 131 l 191 131 l 494 131 q 499 131 502.5 134.5 q 506 138 506 143 l 506 143 l 506 212 q 506 217 502.5 220.5 q 499 224 494 224 l 494 224 l 186 224 q 148 224 117 243 q 86 262 67 293 q 48 324 48 362 l 48 362 l 48 442 q 48 480 67 511 q 86 542 117 561 q 148 580 186 580 l 186 580 l 499 580 q 538 580 569 561 q 600 542 619 511 q 638 480 638 442 l 638 442 l 638 420 l 506 420 l 506 437 q 506 442 502.5 445.5 q 499 449 494 449 l 494 449 l 191 449 q 186 449 182.5 445.5 q 179 442 179 437 l 179 437 l 179 368 q 179 363 182.5 359.5 q 186 356 191 356 l 191 356 l 499 356 q 538 356 569 337 q 600 318 619 287 q 638 256 638 218 l 638 218 l 638 138 q 638 100 619 69 q 600 38 569 19 q 538 0 499 0 l 499 0 l 186 0 z"},"š":{"ha":686,"o":"m 186 0 l 186 0 q 148 0 117 19 q 86 38 67 69 q 48 100 48 138 l 48 138 l 48 160 l 179 160 l 179 143 q 179 138 182.5 134.5 q 186 131 191 131 l 191 131 l 494 131 q 499 131 502.5 134.5 q 506 138 506 143 l 506 143 l 506 212 q 506 217 502.5 220.5 q 499 224 494 224 l 494 224 l 186 224 q 148 224 117 243 q 86 262 67 293 q 48 324 48 362 l 48 362 l 48 442 q 48 480 67 511 q 86 542 117 561 q 148 580 186 580 l 186 580 l 499 580 q 538 580 569 561 q 600 542 619 511 q 638 480 638 442 l 638 442 l 638 420 l 506 420 l 506 437 q 506 442 502.5 445.5 q 499 449 494 449 l 494 449 l 191 449 q 186 449 182.5 445.5 q 179 442 179 437 l 179 437 l 179 368 q 179 363 182.5 359.5 q 186 356 191 356 l 191 356 l 499 356 q 538 356 569 337 q 600 318 619 287 q 638 256 638 218 l 638 218 l 638 138 q 638 100 619 69 q 600 38 569 19 q 538 0 499 0 l 499 0 l 186 0 z m 384 640 l 297 640 l 297 640 l 198 803 l 302 803 l 339 746 l 376 803 l 481 803 l 384 640 z"},"ß":{"ha":833,"o":"m 188 0 l 57 0 l 57 0 l 57 582 q 57 621 76 652 q 95 683 126 701.5 q 157 720 195 720 l 195 720 l 632 720 q 665 720 694.5 705 q 724 690 744 664 q 764 638 770 606 l 770 606 l 770 438 q 770 401 749 366 l 749 366 q 770 332 770 294 l 770 294 l 770 138 q 770 100 751 69 q 732 38 701 19 q 670 0 632 0 l 632 0 l 276 0 l 276 131 l 627 131 q 632 131 635.5 134.5 q 639 138 639 143 l 639 143 l 639 288 q 639 293 635.5 296.5 q 632 300 627 300 l 627 300 l 276 300 l 276 421 l 627 421 q 632 421 635.5 424.5 q 639 428 639 433 l 639 433 l 639 576 q 639 581 635.5 584.5 q 632 588 627 588 l 627 588 l 200 588 q 195 588 191.5 584.5 q 188 581 188 576 l 188 576 l 188 0 z"},"t":{"ha":438,"o":"m 191 0 l 191 0 q 153 0 122 19 q 91 38 72 69 q 53 100 53 138 l 53 138 l 53 758 l 184 758 l 184 580 l 410 580 l 410 449 l 184 449 l 184 143 q 184 138 187.5 134.5 q 191 131 196 131 l 196 131 l 410 131 l 410 0 l 191 0 z"},"u":{"ha":695,"o":"m 191 0 l 191 0 q 153 0 121.5 19 q 90 38 71.5 69 q 53 100 53 138 l 53 138 l 53 580 l 184 580 l 184 143 q 184 138 187.5 134.5 q 191 131 196 131 l 196 131 l 499 131 q 504 131 507.5 134.5 q 511 138 511 143 l 511 143 l 511 580 l 642 580 l 642 138 q 642 100 623.5 69 q 605 38 574 19 q 543 0 504 0 l 504 0 l 191 0 z"},"ú":{"ha":695,"o":"m 191 0 l 191 0 q 153 0 121.5 19 q 90 38 71.5 69 q 53 100 53 138 l 53 138 l 53 580 l 184 580 l 184 143 q 184 138 187.5 134.5 q 191 131 196 131 l 196 131 l 499 131 q 504 131 507.5 134.5 q 511 138 511 143 l 511 143 l 511 580 l 642 580 l 642 138 q 642 100 623.5 69 q 605 38 574 19 q 543 0 504 0 l 504 0 l 191 0 z m 409 639 l 275 639 l 275 639 l 322 822 l 454 822 l 409 639 z"},"û":{"ha":695,"o":"m 191 0 l 191 0 q 153 0 121.5 19 q 90 38 71.5 69 q 53 100 53 138 l 53 138 l 53 580 l 184 580 l 184 143 q 184 138 187.5 134.5 q 191 131 196 131 l 196 131 l 499 131 q 504 131 507.5 134.5 q 511 138 511 143 l 511 143 l 511 580 l 642 580 l 642 138 q 642 100 623.5 69 q 605 38 574 19 q 543 0 504 0 l 504 0 l 191 0 z m 311 648 l 200 648 l 200 648 l 301 818 l 395 818 l 496 648 l 384 648 l 347 711 l 311 648 z"},"ü":{"ha":695,"o":"m 191 0 l 191 0 q 153 0 121.5 19 q 90 38 71.5 69 q 53 100 53 138 l 53 138 l 53 580 l 184 580 l 184 143 q 184 138 187.5 134.5 q 191 131 196 131 l 196 131 l 499 131 q 504 131 507.5 134.5 q 511 138 511 143 l 511 143 l 511 580 l 642 580 l 642 138 q 642 100 623.5 69 q 605 38 574 19 q 543 0 504 0 l 504 0 l 191 0 z m 516 639 l 384 639 l 384 639 l 384 771 l 516 771 l 516 639 z m 312 639 l 181 639 l 181 639 l 181 771 l 312 771 l 312 639 z"},"ù":{"ha":695,"o":"m 191 0 l 191 0 q 153 0 121.5 19 q 90 38 71.5 69 q 53 100 53 138 l 53 138 l 53 580 l 184 580 l 184 143 q 184 138 187.5 134.5 q 191 131 196 131 l 196 131 l 499 131 q 504 131 507.5 134.5 q 511 138 511 143 l 511 143 l 511 580 l 642 580 l 642 138 q 642 100 623.5 69 q 605 38 574 19 q 543 0 504 0 l 504 0 l 191 0 z m 423 639 l 289 639 l 289 639 l 243 822 l 377 822 l 423 639 z"},"v":{"ha":790,"o":"m 460 0 l 340 0 l 340 0 l 21 580 l 172 580 l 401 159 l 629 580 l 780 580 l 460 0 z"},"w":{"ha":1059,"o":"m 365 0 l 263 0 l 263 0 l 35 580 l 174 580 l 315 238 l 463 580 l 599 580 l 757 236 l 888 580 l 1027 580 l 809 0 l 707 0 l 532 387 l 365 0 z"},"x":{"ha":692,"o":"m 188 0 l 46 0 l 46 0 l 46 35 l 259 295 l 46 545 l 46 580 l 188 580 l 344 396 l 500 580 l 642 580 l 642 545 l 429 295 l 642 35 l 642 0 l 501 0 l 344 192 l 188 0 z"},"y":{"ha":685,"o":"m 494 -215 l 139 -215 l 139 -215 l 139 -83 l 488 -83 q 493 -83 496.5 -79.5 q 500 -76 500 -71 l 500 -71 l 500 0 l 180 0 q 143 0 111.5 19 q 80 38 61 69 q 42 100 42 138 l 42 138 l 42 578 l 173 578 l 173 143 q 173 138 176.5 134.5 q 180 131 185 131 l 185 131 l 488 131 q 493 131 496.5 134.5 q 500 138 500 143 l 500 143 l 500 578 l 631 578 l 631 -77 q 631 -115 613 -146.5 q 595 -178 563.5 -196.5 q 532 -215 494 -215 l 494 -215 z"},"ý":{"ha":685,"o":"m 494 -215 l 139 -215 l 139 -215 l 139 -83 l 488 -83 q 493 -83 496.5 -79.5 q 500 -76 500 -71 l 500 -71 l 500 0 l 180 0 q 143 0 111.5 19 q 80 38 61 69 q 42 100 42 138 l 42 138 l 42 578 l 173 578 l 173 143 q 173 138 176.5 134.5 q 180 131 185 131 l 185 131 l 488 131 q 493 131 496.5 134.5 q 500 138 500 143 l 500 143 l 500 578 l 631 578 l 631 -77 q 631 -115 613 -146.5 q 595 -178 563.5 -196.5 q 532 -215 494 -215 l 494 -215 z m 397 640 l 263 640 l 263 640 l 310 823 l 442 823 l 397 640 z"},"ÿ":{"ha":685,"o":"m 494 -215 l 139 -215 l 139 -215 l 139 -83 l 488 -83 q 493 -83 496.5 -79.5 q 500 -76 500 -71 l 500 -71 l 500 0 l 180 0 q 143 0 111.5 19 q 80 38 61 69 q 42 100 42 138 l 42 138 l 42 578 l 173 578 l 173 143 q 173 138 176.5 134.5 q 180 131 185 131 l 185 131 l 488 131 q 493 131 496.5 134.5 q 500 138 500 143 l 500 143 l 500 578 l 631 578 l 631 -77 q 631 -115 613 -146.5 q 595 -178 563.5 -196.5 q 532 -215 494 -215 l 494 -215 z m 504 640 l 372 640 l 372 640 l 372 772 l 504 772 l 504 640 z m 300 640 l 169 640 l 169 640 l 169 772 l 300 772 l 300 640 z"},"z":{"ha":698,"o":"m 643 0 l 54 0 l 54 0 l 54 143 l 450 449 l 54 449 l 54 580 l 643 580 l 643 437 l 247 131 l 643 131 l 643 0 z"},"ž":{"ha":698,"o":"m 643 0 l 54 0 l 54 0 l 54 143 l 450 449 l 54 449 l 54 580 l 643 580 l 643 437 l 247 131 l 643 131 l 643 0 z m 390 640 l 303 640 l 303 640 l 204 803 l 308 803 l 345 746 l 382 803 l 487 803 l 390 640 z"},".":{"ha":227,"o":"m 185 0 l 54 0 l 54 0 l 54 131 l 185 131 l 185 0 z"},",":{"ha":227,"o":"m 54 -132 l 54 -132 l 54 -132 l 54 123 l 185 123 l 185 6 q 185 -27 168 -55.5 q 151 -84 121 -104.5 q 91 -125 54 -132 z"},":":{"ha":237,"o":"m 185 451 l 54 451 l 54 451 l 54 582 l 185 582 l 185 451 z m 185 0 l 54 0 l 54 0 l 54 131 l 185 131 l 185 0 z"},";":{"ha":243,"o":"m 52 -132 l 52 -132 l 52 -132 l 52 123 l 183 123 l 183 6 q 183 -27 166 -55.5 q 149 -84 119 -104.5 q 89 -125 52 -132 z m 183 451 l 51 451 l 51 451 l 51 582 l 183 582 l 183 451 z"},"…":{"ha":574,"o":"m 186 0 l 54 0 l 54 0 l 54 131 l 186 131 l 186 0 z m 377 0 l 245 0 l 245 0 l 245 131 l 377 131 l 377 0 z m 567 0 l 436 0 l 436 0 l 436 131 l 567 131 l 567 0 z"},"!":{"ha":220,"o":"m 189 202 l 58 202 l 58 202 l 58 720 l 189 720 l 189 202 z m 189 0 l 58 0 l 58 0 l 58 131 l 189 131 l 189 0 z"},"¡":{"ha":210,"o":"m 184 0 l 53 0 l 53 0 l 53 523 l 184 523 l 184 0 z m 184 582 l 53 582 l 53 582 l 53 713 l 184 713 l 184 582 z"},"?":{"ha":678,"o":"m 267 196 l 136 196 l 136 196 l 136 263 q 136 301 154.5 332.5 q 173 364 204.5 382.5 q 236 401 273 401 l 273 401 l 515 401 q 520 401 523.5 404.5 q 527 408 527 413 l 527 413 l 527 576 q 527 581 523.5 584.5 q 520 588 515 588 l 515 588 l 31 588 l 31 720 l 520 720 q 557 720 588.5 701 q 620 682 639 651 q 658 620 658 582 l 658 582 l 658 407 q 658 369 639 338 q 620 307 588.5 288 q 557 269 520 269 l 520 269 l 280 269 q 275 269 271 265.5 q 267 262 267 257 l 267 257 l 267 196 z m 267 0 l 136 0 l 136 0 l 136 131 l 267 131 l 267 0 z"},"¿":{"ha":675,"o":"m 157 0 l 157 0 q 119 0 88 19 q 57 38 38 69 q 19 100 19 138 l 19 138 l 19 313 q 19 351 38 382.5 q 57 414 88 432.5 q 119 451 157 451 l 157 451 l 398 451 q 403 451 406.5 454.5 q 410 458 410 463 l 410 463 l 410 530 l 541 530 l 541 457 q 541 419 522 388 q 503 357 472 338 q 441 319 403 319 l 403 319 l 162 319 q 157 319 153.5 315.5 q 150 312 150 307 l 150 307 l 150 143 q 150 138 153.5 134.5 q 157 131 162 131 l 162 131 l 646 131 l 646 0 l 157 0 z m 541 582 l 410 582 l 410 582 l 410 713 l 541 713 l 541 582 z"},"•":{"ha":371,"o":"m 173 293 l 173 293 q 119 293 119 347 l 119 347 l 119 366 q 119 420 173 420 l 173 420 l 196 420 q 251 420 251 366 l 251 366 l 251 347 q 251 293 196 293 l 196 293 l 173 293 z"},"*":{"ha":508,"o":"m 251 380 l 177 278 l 177 278 l 70 354 l 146 458 l 25 496 l 65 623 l 186 582 l 186 710 l 317 710 l 317 583 l 438 623 l 479 496 l 358 458 l 433 355 l 328 278 l 251 380 z"},"#":{"ha":797,"o":"m 198 0 l 66 0 l 66 0 l 115 162 l 32 162 l 32 293 l 155 293 l 200 434 l 61 434 l 61 565 l 242 565 l 293 720 l 427 720 l 374 565 l 550 565 l 601 720 l 734 720 l 681 565 l 757 565 l 757 434 l 640 434 l 595 293 l 728 293 l 728 162 l 552 162 l 505 0 l 372 0 l 422 162 l 245 162 l 198 0 z m 333 434 l 288 293 l 288 293 l 462 293 l 508 434 l 333 434 z"},"/":{"ha":521,"o":"m 46 3 l 6 0 l 6 0 l 6 140 l 479 718 l 519 720 l 519 582 l 46 3 z"},"\\":{"ha":520,"o":"m 518 0 l 479 0 l 479 0 l 5 583 l 5 720 l 45 720 l 518 139 l 518 0 z"},"(":{"ha":289,"o":"m 190 0 l 190 0 q 152 0 120.5 19 q 89 38 70.5 69 q 52 100 52 138 l 52 138 l 52 582 q 52 621 70.5 652 q 89 683 120.5 701.5 q 152 720 190 720 l 190 720 l 244 720 l 244 589 l 195 589 q 190 589 186.5 585.5 q 183 582 183 577 l 183 577 l 183 143 q 183 138 186.5 134.5 q 190 131 195 131 l 195 131 l 244 131 l 244 0 l 190 0 z"},")":{"ha":291,"o":"m 111 0 l 56 0 l 56 0 l 56 131 l 105 131 q 110 131 113.5 134.5 q 117 138 117 143 l 117 143 l 117 577 q 117 582 113.5 585.5 q 110 589 105 589 l 105 589 l 56 589 l 56 720 l 111 720 q 148 720 179.5 701.5 q 211 683 230 652 q 249 621 249 582 l 249 582 l 249 138 q 249 100 230 69 q 211 38 179.5 19 q 148 0 111 0 l 111 0 z"},"{":{"ha":289,"o":"m 203 0 l 203 0 q 166 0 134.5 19 q 103 38 84 69 q 65 100 65 138 l 65 138 l 65 281 l 23 306 l 23 426 l 65 449 l 65 582 q 65 621 84 652 q 103 683 134.5 701.5 q 166 720 203 720 l 203 720 l 257 720 l 257 589 l 208 589 q 203 589 199.5 585.5 q 196 582 196 577 l 196 577 l 196 413 l 139 366 l 196 319 l 196 143 q 196 138 199.5 134.5 q 203 131 208 131 l 208 131 l 257 131 l 257 0 l 203 0 z"},"}":{"ha":289,"o":"m 105 0 l 51 0 l 51 0 l 51 131 l 100 131 q 105 131 108.5 134.5 q 112 138 112 143 l 112 143 l 112 318 l 169 365 l 112 412 l 112 577 q 112 582 108.5 585.5 q 105 589 100 589 l 100 589 l 51 589 l 51 720 l 105 720 q 143 720 174 701.5 q 205 683 224 652 q 243 621 243 582 l 243 582 l 243 450 l 285 425 l 285 307 l 243 281 l 243 138 q 243 100 224 69 q 205 38 173.5 19 q 142 0 105 0 l 105 0 z"},"[":{"ha":275,"o":"m 246 0 l 54 0 l 54 0 l 54 720 l 246 720 l 246 589 l 185 589 l 185 131 l 246 131 l 246 0 z"},"]":{"ha":276,"o":"m 243 0 l 51 0 l 51 0 l 51 131 l 111 131 l 111 589 l 51 589 l 51 720 l 243 720 l 243 0 z"},"-":{"ha":517,"o":"m 468 230 l 59 230 l 59 230 l 59 361 l 468 361 l 468 230 z"},"–":{"ha":708,"o":"m 653 229 l 54 229 l 54 229 l 54 360 l 653 360 l 653 229 z"},"—":{"ha":822,"o":"m 762 229 l 54 229 l 54 229 l 54 360 l 762 360 l 762 229 z"},"_":{"ha":828,"o":"m 768 -132 l 54 -132 l 54 -132 l 54 -1 l 768 -1 l 768 -132 z"},"“":{"ha":434,"o":"m 177 458 l 46 458 l 46 458 l 46 575 q 46 609 63 638 q 80 667 110 687 q 140 707 177 714 l 177 714 l 177 458 z m 381 457 l 250 457 l 250 457 l 250 574 q 250 608 267.5 637 q 285 666 314.5 686 q 344 706 381 713 l 381 713 l 381 457 z"},"”":{"ha":434,"o":"m 54 456 l 54 456 l 54 456 l 54 711 l 186 711 l 186 594 q 186 561 168.5 532.5 q 151 504 121 483.5 q 91 463 54 456 z m 258 456 l 258 456 l 258 456 l 258 711 l 389 711 l 389 594 q 389 561 372 532.5 q 355 504 325.5 483.5 q 296 463 258 456 z"},"‘":{"ha":218,"o":"m 165 458 l 34 458 l 34 458 l 34 575 q 34 609 51 637.5 q 68 666 98 686 q 128 706 165 713 l 165 713 l 165 458 z"},"’":{"ha":216,"o":"m 54 456 l 54 456 l 54 456 l 54 711 l 185 711 l 185 594 q 185 561 168 532 q 151 503 121 483 q 91 463 54 456 z"},"\"":{"ha":389,"o":"m 346 528 l 216 528 l 216 528 l 216 710 l 346 710 l 346 528 z m 173 528 l 43 528 l 43 528 l 43 710 l 173 710 l 173 528 z"},"'":{"ha":243,"o":"m 190 528 l 59 528 l 59 528 l 59 710 l 190 710 l 190 528 z"}," ":{"ha":306,"o":""}," ":{"ha":306,"o":""},"€":{"ha":799,"o":"m 268 0 l 268 0 q 229 0 198 19 q 167 38 148.5 69 q 130 100 130 138 l 130 138 l 130 200 l 35 200 l 35 331 l 130 331 l 130 387 l 35 387 l 35 519 l 130 519 l 130 582 q 130 621 148.5 652 q 167 683 198 701.5 q 229 720 268 720 l 268 720 l 746 720 l 746 589 l 273 589 q 268 589 264.5 585.5 q 261 582 261 577 l 261 577 l 261 519 l 643 519 l 643 387 l 261 387 l 261 331 l 643 331 l 643 200 l 261 200 l 261 143 q 261 138 264.5 134.5 q 268 131 273 131 l 273 131 l 746 131 l 746 0 l 268 0 z"},"¢":{"ha":636,"o":"m 421 -104 l 290 -104 l 290 -104 l 290 0 l 171 0 q 133 0 102 19 q 71 38 52 69 q 33 100 33 138 l 33 138 l 33 452 q 33 490 52 521 q 71 552 102 571 q 133 590 171 590 l 171 590 l 290 590 l 290 712 l 421 712 l 421 590 l 621 590 l 621 458 l 421 458 l 421 131 l 621 131 l 621 0 l 421 0 l 421 -104 z m 176 131 l 176 131 l 290 131 l 290 458 l 176 458 q 171 458 167.5 454.5 q 164 451 164 446 l 164 446 l 164 143 q 164 138 167.5 134.5 q 171 131 176 131 z"},"$":{"ha":788,"o":"m 456 -103 l 325 -103 l 325 -103 l 325 0 l 173 0 q 133 0 101.5 19 q 70 38 52 69.5 q 34 101 34 139 l 34 139 l 34 191 l 165 191 l 165 143 q 165 138 168.5 134.5 q 172 131 177 131 l 177 131 l 325 131 l 325 292 l 173 292 q 134 292 102.5 310.5 q 71 329 52.5 361 q 34 393 34 433 l 34 433 l 34 581 q 34 620 52 651.5 q 70 683 101.5 701.5 q 133 720 173 720 l 173 720 l 325 720 l 325 823 l 456 823 l 456 720 l 607 720 q 647 720 678.5 701.5 q 710 683 728.5 651.5 q 747 620 747 581 l 747 581 l 746 528 l 616 528 l 616 577 q 616 582 612 585.5 q 608 589 603 589 l 603 589 l 456 589 l 456 423 l 607 423 q 647 423 678.5 404.5 q 710 386 728.5 355 q 747 324 747 287 l 747 287 l 747 139 q 747 101 728.5 69.5 q 710 38 678.5 19 q 647 0 608 0 l 608 0 l 456 0 l 456 -103 z m 177 423 l 177 423 l 325 423 l 325 589 l 177 589 q 172 589 168.5 585.5 q 165 582 165 577 l 165 577 l 165 435 q 165 430 168.5 426.5 q 172 423 177 423 z m 456 292 l 456 131 l 456 131 l 604 131 q 608 131 612 134.5 q 616 138 616 143 l 616 143 l 616 280 q 616 285 612 288.5 q 608 292 603 292 l 603 292 l 456 292 z"},"£":{"ha":734,"o":"m 683 0 l 39 0 l 39 0 l 39 131 l 134 131 l 134 291 l 39 291 l 39 422 l 134 422 l 134 582 q 134 621 152.5 652 q 171 683 202.5 701.5 q 234 720 272 720 l 272 720 l 546 720 q 583 720 614.5 701.5 q 646 683 664.5 652 q 683 621 683 582 l 683 582 l 683 539 l 551 539 l 551 584 q 551 588 547.5 592 q 544 596 539 596 l 539 596 l 277 596 q 272 596 268.5 592 q 265 588 265 584 l 265 584 l 265 422 l 582 422 l 582 291 l 265 291 l 265 131 l 683 131 l 683 0 z"},"+":{"ha":448,"o":"m 285 90 l 154 90 l 154 90 l 154 230 l 17 230 l 17 361 l 154 361 l 154 499 l 285 499 l 285 361 l 426 361 l 426 230 l 285 230 l 285 90 z"},"−":{"ha":517,"o":"m 468 230 l 59 230 l 59 230 l 59 361 l 468 361 l 468 230 z"},"×":{"ha":546,"o":"m 195 86 l 53 86 l 53 86 l 55 123 l 191 300 l 54 477 l 53 513 l 195 513 l 275 403 l 355 513 l 498 513 l 497 477 l 359 300 l 496 123 l 498 86 l 355 86 l 275 195 l 195 86 z"},"÷":{"ha":516,"o":"m 495 245 l 10 245 l 10 245 l 10 376 l 495 376 l 495 245 z m 324 0 l 193 0 l 193 0 l 193 131 l 324 131 l 324 0 z m 324 473 l 193 473 l 193 473 l 193 605 l 324 605 l 324 473 z"},"=":{"ha":638,"o":"m 582 337 l 59 337 l 59 337 l 59 468 l 582 468 l 582 337 z m 582 136 l 59 136 l 59 136 l 59 267 l 582 267 l 582 136 z"},">":{"ha":475,"o":"m 479 234 l 59 -9 l 59 -9 l 59 143 l 319 294 l 59 444 l 59 595 l 479 353 l 479 234 z"},"<":{"ha":473,"o":"m 424 145 l 424 -7 l 424 -7 l 5 236 l 5 355 l 424 597 l 424 447 l 164 296 l 424 145 z"},"~":{"ha":404,"o":"m 299 221 l 299 221 q 263 221 203 253 l 203 253 q 141 285 105 285 l 105 285 q 66 285 24 256 l 24 256 l 24 358 q 69 377 109 377 l 109 377 q 147 377 215 345 l 215 345 q 282 312 306 312 l 306 312 q 338 312 388 342 l 388 342 l 388 242 q 336 221 299 221 l 299 221 z"},"%":{"ha":966,"o":"m 175 5 l 135 0 l 135 0 l 135 142 l 810 717 l 848 720 l 848 579 l 175 5 z m 180 376 l 180 376 q 142 376 112 393.5 q 82 411 65 440.5 q 48 470 48 508 l 48 508 l 48 584 q 48 622 65 651.5 q 82 681 112 697.5 q 142 714 180 714 l 180 714 l 265 714 q 303 714 332.5 697.5 q 362 681 379 651.5 q 396 622 396 584 l 396 584 l 396 508 q 396 470 379 440.5 q 362 411 332.5 393.5 q 303 376 265 376 l 265 376 l 180 376 z m 176 482 l 176 482 l 176 482 l 268 482 q 277 482 284 488.5 q 291 495 291 505 l 291 505 l 291 586 q 291 596 284 602.5 q 277 609 268 609 l 268 609 l 176 609 q 166 609 159.5 602.5 q 153 596 153 586 l 153 586 l 153 505 q 153 495 159.5 488.5 q 166 482 176 482 z m 699 6 l 699 6 q 662 6 632.5 23 q 603 40 586 69.5 q 569 99 569 137 l 569 137 l 569 213 q 569 251 586 280.5 q 603 310 632.5 327 q 662 344 699 344 l 699 344 l 785 344 q 823 344 852.5 327 q 882 310 899 280.5 q 916 251 916 213 l 916 213 l 916 137 q 916 99 899 69.5 q 882 40 852.5 23 q 823 6 785 6 l 785 6 l 699 6 z m 697 111 l 697 111 l 697 111 l 788 111 q 798 111 804.5 117.5 q 811 124 811 134 l 811 134 l 811 216 q 811 226 804.5 232.5 q 798 239 788 239 l 788 239 l 697 239 q 687 239 680.5 232.5 q 674 226 674 216 l 674 216 l 674 134 q 674 124 680.5 117.5 q 687 111 697 111 z"},"@":{"ha":820,"o":"m 192 0 l 192 0 q 154 0 123 19 q 92 38 73 69 q 54 100 54 138 l 54 138 l 54 582 q 54 621 73 652 q 92 683 123 701.5 q 154 720 192 720 l 192 720 l 629 720 q 667 720 698.5 701.5 q 730 683 748.5 652 q 767 621 767 582 l 767 582 l 767 209 l 375 209 q 337 209 309 224 q 281 239 265.5 266.5 q 250 294 250 333 l 250 333 l 250 395 q 250 433 265.5 461 q 281 489 309 504 q 337 519 375 519 l 375 519 l 447 519 q 485 519 513 504 q 541 489 556 461 q 571 433 571 395 l 571 395 l 571 307 l 636 307 l 636 577 q 636 582 632.5 585.5 q 629 589 624 589 l 624 589 l 197 589 q 192 589 188.5 585.5 q 185 582 185 577 l 185 577 l 185 143 q 185 138 188.5 134.5 q 192 131 197 131 l 197 131 l 767 131 l 767 0 l 192 0 z m 355 307 l 355 307 l 479 307 l 479 415 q 479 420 475.5 423.5 q 472 427 467 427 l 467 427 l 355 427 q 350 427 346 423.5 q 342 420 342 415 l 342 415 l 342 319 q 342 314 346 310.5 q 350 307 355 307 z"},"&":{"ha":938,"o":"m 628 0 l 191 0 q 153 0 122 18.5 q 91 37 72 68 q 53 99 53 138 l 53 138 l 53 332 q 53 354 69 377 q 85 400 113 410 l 113 410 q 91 435 91 476 l 91 476 l 91 581 q 91 620 110 651.5 q 129 683 160 701 q 191 719 228 719 l 228 719 l 599 719 q 632 719 661.5 704 q 691 689 711 663 q 731 637 737 605 l 737 605 l 737 528 l 606 528 l 606 575 q 606 580 602.5 583.5 q 599 587 594 587 l 594 587 l 234 587 q 229 587 225.5 583.5 q 222 580 222 575 l 222 575 l 222 457 l 635 249 l 635 358 l 766 358 l 766 195 l 886 124 l 886 -7 l 747 72 q 728 40 696 20 q 664 0 628 0 l 628 0 z m 196 131 l 196 131 l 545 131 q 556 131 566 134 q 576 137 585 142 l 585 142 l 212 330 l 197 336 q 191 336 187.5 327 q 184 318 184 291 l 184 291 l 184 143 q 184 138 187.5 134.5 q 191 131 196 131 z"},"¶":{"ha":833,"o":"m 564 0 l 432 0 l 432 0 l 432 244 l 194 244 q 156 244 125 263 q 94 282 75 313 q 56 344 56 382 l 56 382 l 56 572 q 56 609 75 641 q 94 673 125 691.5 q 156 710 194 710 l 194 710 l 783 710 l 783 0 l 652 0 l 652 244 l 564 244 l 564 0 z m 199 376 l 199 376 l 432 376 l 432 578 l 199 578 q 194 578 190.5 574.5 q 187 571 187 566 l 187 566 l 187 388 q 187 383 190.5 379.5 q 194 376 199 376 z m 564 578 l 564 376 l 564 376 l 652 376 l 652 578 l 564 578 z"},"°":{"ha":439,"o":"m 184 361 l 184 361 q 145 361 114 380 q 83 399 64 430.5 q 45 462 45 499 l 45 499 l 45 575 q 45 613 64 644.5 q 83 676 114 694.5 q 145 713 184 713 l 184 713 l 269 713 q 306 713 337.5 694.5 q 369 676 387.5 644.5 q 406 613 406 575 l 406 575 l 406 499 q 406 462 387.5 430.5 q 369 399 337.5 380 q 306 361 269 361 l 269 361 l 184 361 z m 169 474 l 169 474 l 282 474 q 287 474 290.5 477.5 q 294 481 294 486 l 294 486 l 294 588 q 294 593 290.5 597 q 287 601 282 601 l 282 601 l 169 601 q 164 601 160.5 597 q 157 593 157 588 l 157 588 l 157 486 q 157 481 160.5 477.5 q 164 474 169 474 z"},"|":{"ha":214,"o":"m 185 -104 l 54 -104 l 54 -104 l 54 816 l 185 816 l 185 -104 z"},"̈":{"ha":0,"o":"m 168 640 l 36 640 l 36 640 l 36 772 l 168 772 l 168 640 z m -36 640 l -167 640 l -167 640 l -167 772 l -36 772 l -36 640 z"},"̇":{"ha":0,"o":"m 66 640 l -66 640 l -66 772 l 66 772 l 66 640 z"},"̀":{"ha":0,"o":"m 75 640 l -59 640 l -59 640 l -105 823 l 29 823 l 75 640 z"},"́":{"ha":0,"o":"m 61 640 l -73 640 l -73 640 l -26 823 l 106 823 l 61 640 z"},"̂":{"ha":0,"o":"m -36 649 l -147 649 l -147 649 l -46 819 l 48 819 l 149 649 l 37 649 l 0 712 l -36 649 z"},"̌":{"ha":0,"o":"m 44 640 l -43 640 l -43 640 l -142 803 l -38 803 l -1 746 l 36 803 l 141 803 l 44 640 z"},"̊":{"ha":0,"o":"m 27 647 l -26 647 q -54 647 -75 667 q -96 687 -96 715 l -96 715 l -96 766 q -96 794 -75 814.5 q -54 835 -26 835 l -26 835 l 27 835 q 55 835 75.5 814.5 q 96 794 96 766 l 96 766 l 96 715 q 96 687 75.5 667 q 55 647 27 647 l 27 647 z m -27 707 l -27 707 l 27 707 q 29 707 29.5 707.5 q 30 708 30 710 l 30 710 l 30 765 q 30 767 29.5 768 q 29 769 27 769 l 27 769 l -27 769 q -29 769 -29.5 768 q -30 767 -30 765 l -30 765 l -30 710 q -30 708 -29.5 707.5 q -29 707 -27 707 z"},"̃":{"ha":0,"o":"m 93 658 l 93 658 q 38 658 -21 701 l -21 701 q -78 743 -118 743 l -118 743 l -182 743 l -182 844 l -103 844 q -52 844 2 800 l 2 800 q 56 756 102 756 l 102 756 l 182 756 l 182 658 l 93 658 z"},"̧":{"ha":0,"o":"m 473 -151 l 339 -151 l 387 15 l 520 15 l 473 -151 z"},"¨":{"ha":536,"o":"m 435 640 l 303 640 l 303 640 l 303 772 l 435 772 l 435 640 z m 231 640 l 100 640 l 100 640 l 100 772 l 231 772 l 231 640 z"},"˙":{"ha":277,"o":"m 205 640 l 73 640 l 73 772 l 205 772 l 205 640 z"},"`":{"ha":285,"o":"m 238 640 l 104 640 l 104 640 l 58 823 l 192 823 l 238 640 z"},"´":{"ha":213,"o":"m 171 640 l 37 640 l 37 640 l 84 823 l 216 823 l 171 640 z"},"ˆ":{"ha":495,"o":"m 211 649 l 100 649 l 100 649 l 201 819 l 295 819 l 396 649 l 284 649 l 247 712 l 211 649 z"},"ˇ":{"ha":297,"o":"m 193 640 l 106 640 l 106 640 l 7 803 l 111 803 l 148 746 l 185 803 l 290 803 l 193 640 z"},"˘":{"ha":287,"o":"m 131 786 l 131 786 q 89 786 64.5 812 q 40 838 40 898 l 40 898 l 120 898 q 120 883 122 875.5 q 124 868 127 867 l 127 867 l 181 867 q 183 868 184 875.5 q 185 883 185 898 l 185 898 l 264 898 q 264 838 239.5 812 q 215 786 180 786 l 180 786 l 131 786 z"},"˚":{"ha":233,"o":"m 144 755 l 91 755 q 63 755 42 775 q 21 795 21 823 l 21 823 l 21 874 q 21 902 42 922.5 q 63 943 91 943 l 91 943 l 144 943 q 172 943 192.5 922.5 q 213 902 213 874 l 213 874 l 213 823 q 213 795 192.5 775 q 172 755 144 755 l 144 755 z m 90 815 l 90 815 l 144 815 q 146 815 146.5 815.5 q 147 816 147 818 l 147 818 l 147 873 q 147 875 146.5 876 q 146 877 144 877 l 144 877 l 90 877 q 88 877 87.5 876 q 87 875 87 873 l 87 873 l 87 818 q 87 816 87.5 815.5 q 88 815 90 815 z"},"˜":{"ha":403,"o":"m 295 658 l 295 658 q 240 658 181 701 l 181 701 q 124 743 84 743 l 84 743 l 20 743 l 20 844 l 99 844 q 150 844 204 800 l 204 800 q 258 756 304 756 l 304 756 l 384 756 l 384 658 l 295 658 z"},"¯":{"ha":500,"o":"m 411 638 l 87 638 l 87 638 l 87 720 l 411 720 l 411 638 z"},"¸":{"ha":213,"o":"m 151 -151 l 17 -151 l 65 15 l 198 15 l 151 -151 z"},"˛":{"ha":500,"o":"m 311 -250 l 189 -250 l 189 -250 l 189 -17 l 311 -17 l 311 -250 z"},"":{"ha":771,"o":"m 188 0 l 47 0 l 47 0 l 47 35 l 507 589 l 46 589 l 46 720 l 758 720 l 758 685 l 188 0 z"},"":{"ha":784,"o":"m 726 0 l 595 0 l 595 252 q 595 271 593.5 277.5 q 592 284 584.5 285.5 q 577 287 560 287 l 560 287 l 151 287 q 112 287 81 305.5 q 50 324 31 355.5 q 12 387 12 425 l 12 425 l 12 580 q 12 619 31 650 q 50 681 81 700 q 112 719 151 719 l 151 719 l 588 719 q 626 719 657 700 q 688 681 707 650 q 726 619 726 580 l 726 580 l 726 0 z m 156 418 l 156 418 l 595 418 l 595 575 q 595 580 591 583.5 q 587 587 582 587 l 582 587 l 156 587 q 151 587 147.5 583.5 q 144 580 144 575 l 144 575 l 144 430 q 144 425 147.5 421.5 q 151 418 156 418 z"},"":{"ha":815,"o":"m 186 0 l 186 0 q 137 0 99 31 q 61 62 50 107 l 50 107 l 49 236 l 630 544 l 630 588 l 193 588 q 188 588 184.5 584.5 q 181 581 181 576 l 181 576 l 181 516 l 49 516 l 49 582 q 49 620 68 651 q 87 682 118 701 q 149 720 188 720 l 188 720 l 625 720 q 658 720 686.5 704.5 q 715 689 735 663 q 755 637 761 606 l 761 606 l 761 464 l 181 156 l 181 131 l 761 131 l 761 0 l 186 0 z"},"":{"ha":667,"o":"m 318 178 l 186 178 l 186 263 q 186 302 205 333 q 224 364 255 382.5 q 286 401 324 401 l 324 401 l 500 401 q 505 401 508.5 404.5 q 512 408 512 413 l 512 413 l 512 577 q 512 582 508.5 585.5 q 505 589 500 589 l 500 589 l 158 589 l 158 486 l 27 486 l 27 605 q 33 637 52 663 q 71 689 100 704.5 q 129 720 163 720 l 163 720 l 505 720 q 543 720 574 701.5 q 605 683 624 652 q 643 621 643 582 l 643 582 l 643 407 q 643 370 624 338.5 q 605 307 573.5 288 q 542 269 505 269 l 505 269 l 330 269 q 325 269 321.5 265.5 q 318 262 318 257 l 318 257 l 318 178 z m 318 0 l 186 0 l 186 131 l 318 131 l 318 0 z"},"":{"ha":723,"o":"m 593 0 l 462 0 l 462 0 l 462 180 l 9 180 l 9 302 l 365 719 l 488 719 l 488 652 l 179 311 l 462 311 l 462 453 l 593 453 l 593 311 l 694 311 l 694 180 l 593 180 l 593 0 z"},"":{"ha":1142,"o":"m 721 0 l 576 0 l 576 0 l -1 684 l -1 720 l 143 720 l 587 194 l 587 422 l 364 683 l 364 720 l 507 720 l 952 193 l 952 720 l 1085 720 l 1085 0 l 941 0 l 721 262 l 721 0 z"},"":{"ha":1156,"o":"m 215 0 l 70 0 l 70 0 l 70 720 l 203 720 l 203 192 l 648 720 l 791 720 l 791 683 l 568 422 l 568 192 l 1012 720 l 1156 720 l 1156 684 l 580 0 l 435 0 l 435 262 l 215 0 z"},"":{"ha":774,"o":"m 197 0 l 54 0 l 54 0 l 54 720 l 185 720 l 185 190 l 625 720 l 766 720 l 766 676 l 197 0 z"},"":{"ha":774,"o":"m 142 0 l 1 0 l 1 0 l 1 35 l 570 720 l 713 720 l 713 0 l 581 0 l 581 183 l 295 183 l 142 0 z m 581 520 l 405 314 l 405 314 l 581 314 l 581 520 z"},"":{"ha":774,"o":"m 185 0 l 54 0 l 54 0 l 54 720 l 197 720 l 766 35 l 766 0 l 625 0 l 470 183 l 185 183 l 185 0 z m 185 520 l 185 314 l 185 314 l 361 314 l 185 520 z"}}}
